<svg id="Layer_1" height="512" viewBox="0 0 512 512" width="512" xmlns="http://www.w3.org/2000/svg" data-name="Layer 1"><path d="m366.02 168.75c43.73 55.07 40.15 135.64-10.74 186.53-54.74 54.74-143.82 54.74-198.56 0s-54.74-143.82 0-198.56c50.46-50.46 130.11-54.41 185.13-11.83a140.524 140.524 0 0 1 13.43 11.83 142.392 142.392 0 0 1 10.74 12.03z" fill="#6d7486"/><path d="m501 420.93-80.07 80.07-29.35-29.35v-.01l80.06-80.06z" fill="#b3d1e7"/><path d="m442.29 362.22 29.35 29.36-80.06 80.06v.01l-29.36-29.36z" fill="#c2e0f2"/><path d="m442.29 362.22-80.07 80.07-29.29-29.29a140.327 140.327 0 0 0 80.07-80.07z" fill="#b3d1e7"/><path d="m371.29 140.71a16.972 16.972 0 0 1 0 24.02l-4 4-1.27.02a142.392 142.392 0 0 0 -10.74-12.03 140.524 140.524 0 0 0 -13.43-11.83l1.42-.18 4-4a16.972 16.972 0 0 1 24.02 0z" fill="#4a5160"/><path d="m149.78 69.71 29.29 29.29a140.327 140.327 0 0 0 -80.07 80.07l-29.29-29.29z" fill="#b3d1e7"/><path d="m149.78 69.71-80.07 80.07-29.35-29.35v-.01l80.06-80.06z" fill="#c2e0f2"/><path d="m91.07 11 29.35 29.36-80.06 80.06v.01l-29.36-29.36z" fill="#b3d1e7"/><path d="m336.07 175.93a113.236 113.236 0 1 1 -160.14 0 113.257 113.257 0 0 1 160.14 0z" fill="#7ce5e9"/><path d="m314.714 200.286a83.034 83.034 0 1 1 -117.428 0 83.05 83.05 0 0 1 117.428 0z" fill="#4cc1be"/><path d="m227.286 200.286a82.642 82.642 0 0 1 43.714-22.939 83.022 83.022 0 1 0 0 163.306 83.014 83.014 0 0 1 -43.714-140.367z" fill="#3aa09b"/><g fill="#284268"><path d="m94.584 183.135a6.093 6.093 0 0 0 2.316 1.595 6 6 0 0 0 8.059-4.42 134.382 134.382 0 0 1 75.581-75.443 6.024 6.024 0 0 0 4.159-8.054 5.979 5.979 0 0 0 -1.853-2.52l-87.538-87.536a6 6 0 0 0 -8.485 0l-80.066 80.066a6 6 0 0 0 0 8.485zm73.94-86.191a146.608 146.608 0 0 0 -71.58 71.58l-18.744-18.744 71.58-71.58zm-27.23-27.23-71.579 71.581-20.872-20.872 71.58-71.58zm-50.229-50.229 20.873 20.872-71.581 71.581-20.872-20.873z"/><path d="m417.416 328.864a6.11 6.11 0 0 0 -2.314-1.594 6 6 0 0 0 -8.059 4.419 134.379 134.379 0 0 1 -75.579 75.443 6.114 6.114 0 0 0 -1.858.81 6.051 6.051 0 0 0 -2.307 7.234 5.977 5.977 0 0 0 1.86 2.533l87.533 87.533a6 6 0 0 0 8.485 0l80.066-80.065a6 6 0 0 0 0-8.485zm-73.94 86.192a146.6 146.6 0 0 0 71.58-71.581l18.744 18.745-71.58 71.58zm27.229 27.229 71.58-71.58 20.873 20.872-71.581 71.58zm50.23 50.23-20.873-20.873 71.581-71.58 20.872 20.873z"/><path d="m256 136.771a119.228 119.228 0 1 0 84.308 34.921 118.444 118.444 0 0 0 -84.308-34.921zm75.823 195.052a107.179 107.179 0 1 1 0-151.646 107.351 107.351 0 0 1 0 151.646z"/><path d="m320.052 250h-54.067a11.56 11.56 0 0 0 -12.8-5.3l-40.985-40.982a6 6 0 0 0 -8.486 8.486l40.986 40.981a11.64 11.64 0 0 0 21.285 8.815h54.067a6 6 0 0 0 0-12z"/><path d="m375.537 136.463a23.01 23.01 0 0 0 -32.5 0l-1.04 1.04c-57.211-41.568-137.962-36.581-189.516 14.973-57.082 57.084-57.082 149.964 0 207.047a146.57 146.57 0 0 0 207.048 0c51.554-51.554 56.54-132.3 14.973-189.515l1.04-1.04a23.012 23.012 0 0 0 -.005-32.505zm-24.02 8.486a10.984 10.984 0 0 1 15.534 15.534l-.051.051q-3.559-4.134-7.476-8.058t-8.058-7.476zm-.478 206.09a134.564 134.564 0 0 1 -190.078 0c-52.4-52.4-52.4-137.673 0-190.078a134.559 134.559 0 0 1 190.078 0c52.403 52.405 52.403 137.673 0 190.078z"/><path d="m303.039 324.72a81.311 81.311 0 0 1 -15.41 8.606 6 6 0 1 0 4.676 11.051 93.3 93.3 0 0 0 17.688-9.878 6 6 0 1 0 -6.954-9.779z"/><path d="m256 165.182a93.278 93.278 0 0 0 -30.86 181.3 6 6 0 1 0 3.97-11.324 81.23 81.23 0 1 1 103.072-48.358 6 6 0 1 0 11.246 4.187 93.32 93.32 0 0 0 -87.428-125.805z"/></g></svg>