<svg id="Layer_35" enable-background="new 0 0 64 64" height="512" viewBox="0 0 64 64" width="512" xmlns="http://www.w3.org/2000/svg"><g fill="#f0bc5e"><path d="m33 42.459v-3.145c-.631-.95-1-2.088-1-3.314s.369-2.364 1-3.314v-21.686c0-1.103-.897-2-2-2h-24c-1.103 0-2 .897-2 2v38c0 1.103.897 2 2 2h19.05c.401-4.034 3.199-7.362 6.95-8.541z"/><path d="m36.714 42-.714 10 2 2 2-2-.714-10z"/><path d="m47 25.618v-11.236l11.236 5.618z"/></g><path d="m15 57h8v2h-8z"/><path d="m60 10h-16c-1.654 0-3 1.346-3 3v14c0 1.654 1.346 3 3 3h6v9c0 1.103-.897 2-2 2h-5.111c1.301-1.272 2.111-3.042 2.111-5 0-3.859-3.141-7-7-7-.34 0-.672.033-1 .08v-23.08c0-2.757-2.243-5-5-5h-26c-2.757 0-5 2.243-5 5v52c0 2.757 2.243 5 5 5h19 1.943 19.057v-11.913c0-.726.518-1.347 1.231-1.477l3.199-.582c3.807-.691 6.57-4.002 6.57-7.87v-11.158h3c1.654 0 3-1.346 3-3v-14c0-1.654-1.346-3-3-3zm-17 26c0 2.757-2.243 5-5 5s-5-2.243-5-5 2.243-5 5-5 5 2.243 5 5zm-30-33h12v1c0 .552-.448 1-1 1h-10c-.552 0-1-.448-1-1zm-7 0h5v1c0 1.654 1.346 3 3 3h10c1.654 0 3-1.346 3-3v-1h5c1.654 0 3 1.346 3 3v23.685c-2.361 1.126-4 3.53-4 6.315 0 2.123.954 4.025 2.452 5.31-4.839 1.154-8.452 5.503-8.452 10.69v1h-22v-47c0-1.654 1.346-3 3-3zm0 58c-1.654 0-3-1.346-3-3v-3h22v6zm49-19.842c0 2.901-2.072 5.384-4.927 5.903l-3.199.581c-1.665.303-2.874 1.752-2.874 3.445v9.913h-12v-13h-2v13h-3v-9c0-4.963 4.037-9 9-9h12c2.206 0 4-1.794 4-4v-9.5c0-.827.673-1.5 1.5-1.5s1.5.673 1.5 1.5zm6-14.158c0 .552-.448 1-1 1h-3.351c-.564-1.178-1.758-2-3.149-2s-2.585.822-3.149 2h-6.351c-.552 0-1-.448-1-1v-14c0-.552.448-1 1-1h16c.552 0 1 .448 1 1z"/><path d="m19 16.414 2.707-2.707-1.414-1.414-1.293 1.293v-.586h-10v10h10zm-8-1.414h6v.586l-3 3-1.293-1.293-1.414 1.414 2.293 2.293h-2.586zm3.414 6 2.586-2.586v2.586z"/><path d="m19 25h-10v10h10zm-2 8h-6v-6h6z"/><path d="m19 37h-10v10h10zm-2 8h-6v-6h6z"/><path d="m21 21h8v2h-8z"/><path d="m21 17h8v2h-8z"/><path d="m23 13h6v2h-6z"/><path d="m21 25h8v2h-8z"/><path d="m21 29h8v2h-8z"/><path d="m21 33h2v2h-2z"/><path d="m25 33h2v2h-2z"/><path d="m21 37h8v2h-8z"/><path d="m21 41h4v2h-4z"/><path d="m21 45h4v2h-4z"/></svg>