<svg height="512" viewBox="0 0 64 64" width="512" xmlns="http://www.w3.org/2000/svg"><g id="phone-Light_bulb-report-graph-business" data-name="phone-Light bulb-report-graph-business"><rect fill="#edf9fa" height="58" rx="2" width="34" x="27" y="3"/><path d="m27 7h34v46h-34z" fill="#2488ff"/><path d="m31 27a14 14 0 1 0 -20 12.634v3.366h12v-3.366a13.981 13.981 0 0 0 8-12.634z" fill="#ffda44"/><path d="m11 43h12a0 0 0 0 1 0 0v3a4 4 0 0 1 -4 4h-4a4 4 0 0 1 -4-4v-3a0 0 0 0 1 0 0z" fill="#787680"/><g fill="#2bb673"><path d="m34 35h4v8h-4z"/><path d="m42 31h4v12h-4z"/><path d="m50 26h4v17h-4z"/></g><path d="m31 43h26v3h-26z" fill="#ef8746"/><path d="m59 2h-30a3.009 3.009 0 0 0 -3 3v10.03a14.982 14.982 0 1 0 -16 25.22v5.75a5 5 0 0 0 5 5h4a5 5 0 0 0 5-5v-5.75a14.782 14.782 0 0 0 2-1.28v20.03a3.009 3.009 0 0 0 3 3h30a3.009 3.009 0 0 0 3-3v-54a3.009 3.009 0 0 0 -3-3zm-37 44a3.009 3.009 0 0 1 -3 3h-4a3.009 3.009 0 0 1 -3-3v-2h10zm-4-13v-1h1v10h-4v-10h1v1zm4.57 5.73a1 1 0 0 0 -.57.9v2.37h-1v-10.78a2.986 2.986 0 0 0 1-2.22v-1a3.009 3.009 0 0 0 -3-3h-4a1 1 0 0 1 -1-1v-1a1 1 0 0 1 1-1h4a1 1 0 0 1 1 1v1h2v-1a3.009 3.009 0 0 0 -3-3h-1v-1h-2v1h-1a3.009 3.009 0 0 0 -3 3v1a3.009 3.009 0 0 0 3 3h4a1 1 0 0 1 1 1v1a1 1 0 0 1 -1 1h-4a1 1 0 0 1 -1-1h-2a2.986 2.986 0 0 0 1 2.22v10.78h-1v-2.37a1 1 0 0 0 -.57-.9 13 13 0 1 1 11.14 0zm37.43 20.27a1 1 0 0 1 -1 1h-30a1 1 0 0 1 -1-1v-5h32zm0-7h-32v-14.83a14.916 14.916 0 0 0 0-20.33v-8.84h32zm0-46h-32v-1a1 1 0 0 1 1-1h30a1 1 0 0 1 1 1z"/><path d="m42 56h4v2h-4z"/><path d="m57 42h-2v-16a1 1 0 0 0 -1-1h-4a1 1 0 0 0 -1 1v16h-2v-11a1 1 0 0 0 -1-1h-4a1 1 0 0 0 -1 1v11h-2v-7a1 1 0 0 0 -1-1h-4a1 1 0 0 0 -1 1v7h-2a1 1 0 0 0 -1 1v3a1 1 0 0 0 1 1h26a1 1 0 0 0 1-1v-3a1 1 0 0 0 -1-1zm-6-15h2v15h-2zm-8 5h2v10h-2zm-8 4h2v6h-2zm21 9h-24v-1h24z"/><path d="m34.545 28.839 14.208-9.235 1.629 2.505 3.618-7.109-7.966.42 1.629 2.506-14.208 9.235z"/></g></svg>