<svg id="Capa_1" enable-background="new 0 0 512.066 512.066" height="512" viewBox="0 0 512.066 512.066" width="512" xmlns="http://www.w3.org/2000/svg"><g><g><path d="m452.879 504.566h-393.691c-19.226 0-34.812-15.586-34.812-34.812v-427.442c-.001-19.226 15.585-34.812 34.812-34.812h393.691c19.226 0 34.812 15.586 34.812 34.812v427.442c0 19.226-15.586 34.812-34.812 34.812z" fill="#d8ecfe"/></g><g><path d="m487.693 42.313v427.44c0 19.23-15.59 34.81-34.81 34.81h-20c19.22 0 34.81-15.58 34.81-34.81v-427.44c0-19.23-15.59-34.81-34.81-34.81h20c19.22 0 34.81 15.58 34.81 34.81z" fill="#c4e2ff"/></g><g><path d="m436.643 467.468h-361.22c-7.943 0-14.381-6.439-14.381-14.381v-394.107c0-7.943 6.439-14.381 14.381-14.381h361.22c7.943 0 14.381 6.439 14.381 14.381v394.107c.001 7.942-6.438 14.381-14.381 14.381z" fill="#8ac9fe"/></g><g><path d="m451.023 58.983v394.1c0 7.95-6.44 14.38-14.38 14.38h-20c7.94 0 14.38-6.43 14.38-14.38v-394.1c0-7.95-6.44-14.38-14.38-14.38h20c7.94 0 14.38 6.43 14.38 14.38z" fill="#60b7ff"/></g><g><g><g><path d="m405.407 147.309c-1.7-14.896-9.601-27.472-22.245-35.412-15.608-9.8-36.284-10.787-58.222-2.78-7.347 2.682-11.142 10.84-8.46 18.187s10.839 11.14 18.187 8.46c7.831-2.859 22.586-6.64 33.409.156 6.659 4.181 8.649 10.25 9.146 14.606.851 7.449-1.891 15.163-7.335 20.636-5.175 5.202-12.81 9.599-22.078 12.715-16.685 5.607-34.88 8.123-52.611 7.285-7.811-.365-14.464 5.697-14.833 13.496-.371 7.812 5.682 14.469 13.495 14.84 2.653.125 5.352.189 8.023.189 18.593 0 37.599-3.085 54.963-8.922 13.613-4.575 24.766-11.169 33.152-19.597 11.468-11.529 17.229-27.924 15.409-43.859z" fill="#eef5f6"/></g><g><path d="m390.002 191.168c-8.385 8.432-19.542 15.022-33.149 19.599-17.367 5.83-36.377 8.916-54.969 8.916-2.668 0-5.365-.057-8.024-.19-5.887-.285-10.787-4.14-12.667-9.372.209.029.418.038.636.047 2.573.114 5.194.171 7.777.171 18.042 0 36.482-2.782 53.327-8.043 13.208-4.121 24.033-10.065 32.171-17.671 11.119-10.388 16.712-25.173 14.946-39.539-1.652-13.427-9.315-24.774-21.583-31.933-9.382-5.469-20.643-7.891-32.921-7.226 17.937-4.254 34.554-2.231 47.62 5.973 12.638 7.938 20.539 20.51 22.239 35.409 1.821 15.933-3.942 32.332-15.403 43.859z" fill="#deecf1"/></g><g><path d="m343.693 85.048h-227.334c-2.896 0-5.291 2.248-5.469 5.138-1.492 24.215-2.053 126.914 92.535 154.393h53.201c94.588-27.479 94.028-130.178 92.535-154.393-.177-2.891-2.572-5.138-5.468-5.138z" fill="#eef5f6"/></g><g><path d="m349.484 104.639c-.022 1.358-.057 2.719-.104 4.089-.05 1.444-.114 2.887-.193 4.329-.172 3.14-.412 6.277-.724 9.406-4 40.434-21.943 101.816-91.836 122.116h-20.263c69.902-20.299 87.836-81.681 91.836-122.116.11-.995.192-1.972.274-2.94s.164-1.918.219-2.858c.26-4.475.501-8.899.539-13.387.046-5.47-.137-9.944-.329-13.095-.183-2.886-2.575-5.132-5.47-5.132h20.263c2.895 0 5.287 2.246 5.47 5.132.165 2.603.266 5.21.313 7.818.04 2.231.04 4.432.005 6.638z" fill="#deecf1"/></g><g><path d="m349.476 104.639c0 4.856-.31 9.735-.715 14.572-.023.278-.241 3.252-.298 3.252-.001 0-237.428 0-237.428 0-.84-11.697-.384-25.048-.027-32.216.146-2.913 2.557-5.196 5.479-5.196h227.082c2.922 0 5.324 2.283 5.47 5.196.018.447.046.922.073 1.416.24 4.326.364 8.649.364 12.976z" fill="#cecece"/></g><g><path d="m349.472 104.795c-.038 5.936-.415 11.703-1.009 17.668h-20.263c.1-.995.192-1.972.274-2.94.451-5.315.713-10.885.758-16.245.046-5.47-.137-9.944-.329-13.094-.183-2.886-2.575-5.132-5.47-5.132h20.135c2.922 0 5.533 2.396 5.679 5.309.242 4.822.256 9.654.225 14.434z" fill="#bfbfbf"/></g><g><path d="m302.477 311.51h-144.902c-9.07 0-16.424-7.353-16.424-16.424v-17.616h177.749v17.617c0 9.07-7.353 16.423-16.423 16.423z" fill="#eef5f6"/></g><g><path d="m318.896 277.472v17.614c0 9.068-7.35 16.427-16.418 16.427h-18.991c9.068 0 16.418-7.359 16.418-16.427v-17.614z" fill="#deecf1"/></g><g><path d="m330.45 278.387h-200.849c-12.853 0-23.273-10.42-23.273-23.273v-6.923c0-2.895 2.347-5.241 5.241-5.241h236.913c2.895 0 5.241 2.347 5.241 5.241v6.923c0 12.853-10.419 23.273-23.273 23.273z" fill="#cecece"/></g><g><path d="m353.725 248.187v6.922c0 12.857-10.426 23.274-23.274 23.274h-18.45c12.847 0 23.274-10.417 23.274-23.274v-6.922c0-2.887-2.355-5.242-5.242-5.242h18.45c2.897.001 5.242 2.356 5.242 5.242z" fill="#bfbfbf"/></g></g><g><path d="m387.15 105.545c-8.883-5.576-19.14-8.642-30.222-9.19-.065-2.585-.169-4.823-.281-6.631-.422-6.827-6.112-12.175-12.954-12.175h-227.334c-6.845 0-12.535 5.349-12.954 12.177-.692 11.221-1.275 40.663 8.232 71.643 1.216 3.96 5.418 6.185 9.37 4.969 3.96-1.215 6.185-5.411 4.97-9.371-2.861-9.323-4.732-18.502-5.934-27.003h219.97c-1.489 10.523-4.002 22.073-8.151 33.67-12.845 35.902-36.811 60.029-71.27 71.818h-61.155c-26.065-8.933-46.246-25.039-60.038-47.951-2.138-3.55-6.745-4.694-10.294-2.558s-4.693 6.745-2.558 10.294c10 16.611 22.944 30.037 38.646 40.215h-53.627c-7.025 0-12.741 5.716-12.741 12.741v6.923c0 16.968 13.805 30.773 30.773 30.773h4.05v9.199c0 13.191 10.732 23.924 23.924 23.924h144.901c13.191 0 23.924-10.732 23.924-23.924v-9.199h4.05c16.969 0 30.773-13.805 30.773-30.773v-6.923c0-7.025-5.716-12.741-12.741-12.741h-53.621c3.963-2.569 7.751-5.344 11.361-8.323 18.001-.442 36.24-3.614 53.016-9.253 14.727-4.95 26.865-12.156 36.079-21.418 13.06-13.129 19.617-31.819 17.541-49.998-1.96-17.208-11.09-31.738-25.705-40.915zm-75.75 189.541c0 4.92-4.003 8.924-8.924 8.924h-144.901c-4.921 0-8.924-4.003-8.924-8.924v-9.199h162.749zm34.824-44.636v4.664c0 8.697-7.076 15.773-15.773 15.773h-200.849c-8.697 0-15.773-7.076-15.773-15.773v-4.664zm-.238-81.765c3.544-9.906 5.985-19.764 7.655-29.068 3.704.03 7.388.734 10.448 2.655 3.318 2.083 5.23 5.147 5.683 9.105.594 5.205-1.351 10.624-5.201 14.496-4.357 4.381-10.98 8.148-19.15 10.895-.991.333-1.992.645-2.993.955 1.262-2.944 2.454-5.952 3.558-9.038zm-227.486-53.723c-.622-9.489-.479-17.332-.229-22.415h223.51c.256 5.188.394 13.009-.221 22.415zm266.183 70.915c-7.556 7.595-17.725 13.577-30.224 17.778-10.218 3.435-21.051 5.848-32.015 7.214 3.937-4.771 7.564-9.88 10.859-15.32 5.745-1.199 11.401-2.716 16.898-4.563 10.367-3.485 19.014-8.511 25.006-14.535 7.036-7.074 10.576-17.083 9.469-26.775-.966-8.468-5.444-15.609-12.609-20.107-5.108-3.208-10.756-4.582-16.3-4.879.501-4.728.82-9.199 1.005-13.317 8.306.499 15.899 2.791 22.403 6.876 10.675 6.704 17.346 17.326 18.782 29.911 1.562 13.691-3.4 27.791-13.274 37.717z"/><path d="m452.879 0h-393.691c-23.332 0-42.313 18.981-42.313 42.313v427.441c0 23.331 18.981 42.313 42.313 42.313h262.369c4.143 0 7.5-3.358 7.5-7.5s-3.357-7.5-7.5-7.5h-262.369c-15.061 0-27.313-12.252-27.313-27.313v-427.441c0-15.061 12.252-27.313 27.313-27.313h393.691c15.061 0 27.313 12.252 27.313 27.313v427.441c0 15.06-12.252 27.313-27.313 27.313h-96.174c-4.143 0-7.5 3.358-7.5 7.5s3.357 7.5 7.5 7.5h96.174c23.331 0 42.313-18.981 42.313-42.313v-427.441c-.001-23.332-18.982-42.313-42.313-42.313z"/><path d="m458.524 453.087v-394.108c0-12.065-9.815-21.881-21.881-21.881h-361.22c-12.065 0-21.881 9.816-21.881 21.881v394.107c0 12.065 9.815 21.881 21.881 21.881h361.221c12.065.001 21.88-9.815 21.88-21.88zm-389.982 0v-394.108c0-3.794 3.087-6.881 6.881-6.881h361.221c3.794 0 6.881 3.087 6.881 6.881v394.107c0 3.794-3.087 6.881-6.881 6.881h-361.221c-3.794.001-6.881-3.086-6.881-6.88z"/><path d="m247.248 350.143c-.025-.068-.052-.136-.08-.204-1.425-3.467-4.767-5.706-8.514-5.706-.003 0-.005 0-.008 0-3.751.003-7.093 2.248-8.514 5.72-.023.057-28.337 74.396-28.337 74.396-1.475 3.871.469 8.204 4.339 9.678 3.869 1.472 8.204-.468 9.679-4.339l5.201-13.655h35.068l5.145 13.634c1.133 3.003 3.987 4.854 7.018 4.854.88 0 1.775-.156 2.647-.485 3.875-1.463 5.831-5.79 4.368-9.665zm-20.521 50.89 11.901-31.248 11.793 31.248z"/><path d="m332.52 343.671h-30.29c-4.143 0-7.5 3.358-7.5 7.5v74.734c0 4.142 3.357 7.5 7.5 7.5s7.5-3.358 7.5-7.5v-30.575h20.384c4.143 0 7.5-3.358 7.5-7.5s-3.357-7.5-7.5-7.5h-20.384v-21.659h22.79c4.143 0 7.5-3.358 7.5-7.5s-3.358-7.5-7.5-7.5z"/><path d="m393.898 358.807c4.143 0 7.5-3.358 7.5-7.5s-3.357-7.5-7.5-7.5h-31.433c-4.143 0-7.5 3.358-7.5 7.5v74.598c0 4.142 3.357 7.5 7.5 7.5h31.433c4.143 0 7.5-3.358 7.5-7.5s-3.357-7.5-7.5-7.5h-23.933v-22.299h21.615c4.143 0 7.5-3.358 7.5-7.5s-3.357-7.5-7.5-7.5h-21.615v-22.299z"/><path d="m184.347 409.534c-3.173-2.664-7.903-2.249-10.566.923-.718.855-1.491 1.654-2.299 2.374-4.153 3.699-9.426 5.575-15.671 5.575-16.621 0-30.143-13.522-30.143-30.143s13.521-30.143 30.143-30.143c6.041 0 11.867 1.778 16.847 5.143 3.435 2.321 8.096 1.417 10.414-2.016 2.318-3.432 1.416-8.094-2.016-10.413-7.47-5.047-16.199-7.714-25.245-7.714-24.892 0-45.143 20.251-45.143 45.143s20.251 45.143 45.143 45.143c9.894 0 18.763-3.241 25.647-9.374 1.348-1.2 2.63-2.522 3.813-3.931 2.662-3.173 2.249-7.904-.924-10.567z"/></g></g></g></svg>