<svg id="outline" height="512" viewBox="0 0 512 512" width="512" xmlns="http://www.w3.org/2000/svg"><path d="m80 48h-56a16 16 0 0 0 -16 16v424a16 16 0 0 0 16 16h416a16 16 0 0 0 16-16v-24z" fill="#443c3c"/><path d="m104 464a56 56 0 0 1 -56-56v-344a16 16 0 0 1 16-16h376a16 16 0 0 1 16 16v344c0 30.928 17.072 56 48 56z" fill="#fff"/><path d="m456 64a16 16 0 0 0 -16-16h-376a16 16 0 0 0 -16 16v88h408z" fill="#f75252"/><g opacity=".2"><path d="m456 72.4v-8.4a16 16 0 0 0 -16-16h-376a16 16 0 0 0 -16 16v258.377c148.36-220.697 364.051-246.9 408-249.977z" fill="#fff"/></g><circle cx="148" cy="100" fill="#fff" r="28"/><circle cx="380" cy="100" fill="#fff" r="28"/><path d="m275.2 212.8a19.2 19.2 0 0 1 -38.4 0c0-10.6 19.2-28.8 19.2-28.8s19.2 18.2 19.2 28.8z" fill="#f7b01a"/><path d="m240 256h32v48h-32z" fill="#f75252"/><path d="m168 304h176v64h-176z" fill="#17c4e0"/><path d="m136 368h240v64h-240z" fill="#17c4e0"/><path d="m168 304v21c14.666 0 14.666 6 29.331 6s14.666-6 29.332-6 14.667 6 29.333 6 14.666-6 29.332-6 14.668 6 29.336 6 14.668-6 29.336-6v-21z" fill="#ede9e2"/><path d="m136 368v19c20 0 20 10 40 10s20-10 40-10 20 10 40 10 20-10 40-10 20 10 40 10 20-10 40-10v-19z" fill="#ede9e2"/><g opacity=".2"><path d="m266.924 196.084a124.212 124.212 0 0 0 -10.924-12.084s-19.2 18.2-19.2 28.8a19.089 19.089 0 0 0 3.647 11.227c8.401-11.973 19.932-22.449 26.477-27.943z" fill="#fff"/></g><g opacity=".2"><path d="m344 311.326v-7.326h-176v64h24c13.719-61.735 121.536-58.773 152-56.674z" fill="#fff"/></g><g opacity=".2"><path d="m136 368v64h40c16-72 200-56 200-56v-8z" fill="#fff"/></g><path d="m504 456c-18.452 0-40-12.571-40-48v-344a24.027 24.027 0 0 0 -24-24h-48v-16a24.027 24.027 0 0 0 -24-24h-32a24.027 24.027 0 0 0 -24 24v16h-152v-16a24.027 24.027 0 0 0 -24-24h-32a24.027 24.027 0 0 0 -24 24v16h-56a24.027 24.027 0 0 0 -24 24v424a24.027 24.027 0 0 0 24 24h416a24.027 24.027 0 0 0 24-24v-16h40a8 8 0 0 0 0-16zm-176-432a8.009 8.009 0 0 1 8-8h32a8.009 8.009 0 0 1 8 8v16h-48zm-232 0a8.009 8.009 0 0 1 8-8h32a8.009 8.009 0 0 1 8 8v16h-48zm-16 32h64v8.228a36 36 0 1 0 16 1.837v-10.065h216v8.228a36 36 0 1 0 16 1.837v-10.065h48a8.009 8.009 0 0 1 8 8v80h-392v-80a8.009 8.009 0 0 1 8-8zm80 28.038a19.967 19.967 0 1 1 -16-3.638v23.6h16zm232 0a19.967 19.967 0 1 1 -16-3.638v23.6h16zm56 403.962a8.009 8.009 0 0 1 -8 8h-416a8.009 8.009 0 0 1 -8-8v-424a8.009 8.009 0 0 1 8-8h17.376a23.884 23.884 0 0 0 -1.376 8v344a64.072 64.072 0 0 0 64 64h344zm-344-32a48.054 48.054 0 0 1 -48-48v-248h392v248c0 17.386 5.03 33.227 14.163 44.605q1.426 1.777 2.961 3.395z"/><path d="m376 360h-24v-56a8 8 0 0 0 -8-8h-64v-40a8 8 0 0 0 -8-8h-8v-9.2a27.248 27.248 0 0 0 19.2-26c0-13.031-16.607-29.782-21.7-34.606a8 8 0 0 0 -11.006 0c-5.09 4.824-21.7 21.575-21.7 34.606a27.248 27.248 0 0 0 19.2 26v9.2h-8a8 8 0 0 0 -8 8v40h-63.994a8 8 0 0 0 -8 8v56h-24a8 8 0 0 0 -8 8v64a8 8 0 0 0 8 8h240a8 8 0 0 0 8-8v-64a8 8 0 0 0 -8-8zm-120-164.519c6.317 7.041 11.2 14.4 11.2 17.318a11.2 11.2 0 0 1 -22.4 0c0-2.921 4.884-10.278 11.2-17.318zm-8 68.519h16v32h-16zm-8 48h96v5.635a42.894 42.894 0 0 0 -9.7 2.961 29.375 29.375 0 0 1 -23.278 0 45.344 45.344 0 0 0 -35.393 0 29.364 29.364 0 0 1 -23.274 0 45.339 45.339 0 0 0 -35.391 0 29.362 29.362 0 0 1 -23.273 0 42.93 42.93 0 0 0 -9.691-2.961v-5.635zm-64 22.044c1.252.385 2.4.853 3.636 1.36a45.338 45.338 0 0 0 35.39 0 29.363 29.363 0 0 1 23.273 0 45.34 45.34 0 0 0 35.391 0 29.37 29.37 0 0 1 23.276 0 45.346 45.346 0 0 0 35.394 0c1.242-.508 2.386-.975 3.639-1.36v25.956h-159.999zm-8 41.956h200v3.54a46.975 46.975 0 0 0 -15.58 5.305c-4.643 2.321-8.311 4.155-16.42 4.155s-11.781-1.834-16.424-4.155c-5.479-2.74-11.69-5.845-23.579-5.845s-18.1 3.105-23.577 5.845c-4.648 2.321-8.32 4.155-16.426 4.155s-11.779-1.834-16.422-4.155c-5.479-2.739-11.689-5.845-23.578-5.845s-18.1 3.105-23.576 5.845c-4.643 2.321-8.31 4.155-16.418 4.155s-11.778-1.834-16.42-4.155a46.962 46.962 0 0 0 -15.58-5.305v-3.54zm-24 48v-28.188a36.36 36.36 0 0 1 8.42 3.344c5.48 2.739 11.689 5.844 23.58 5.844s18.1-3.105 23.577-5.845c4.643-2.321 8.31-4.155 16.42-4.155s11.779 1.834 16.422 4.155c5.481 2.74 11.687 5.845 23.575 5.845s18.1-3.105 23.577-5.845c4.643-2.321 8.311-4.155 16.422-4.155s11.78 1.834 16.424 4.155c5.483 2.74 11.689 5.845 23.583 5.845s18.1-3.105 23.58-5.845a36.334 36.334 0 0 1 8.42-3.343v28.188z"/><path d="m130.343 229.657 14.343 14.343-14.343 14.343 11.314 11.314 14.343-14.343 14.343 14.343 11.314-11.314-14.343-14.343 14.343-14.343-11.314-11.314-14.343 14.343-14.343-14.343z"/><path d="m394.343 226.343-6.343 6.343-6.343-6.343-11.314 11.314 6.343 6.343-6.343 6.343 11.314 11.314 6.343-6.343 6.343 6.343 11.314-11.314-6.343-6.343 6.343-6.343z"/><path d="m106.343 322.343-6.343 6.343-6.343-6.343-11.314 11.314 6.343 6.343-6.343 6.343 11.314 11.314 6.343-6.343 6.343 6.343 11.314-11.314-6.343-6.343 6.343-6.343z"/><path d="m312 184h16v16h-16z"/><path d="m120 176h16v16h-16z"/><path d="m120 296h16v16h-16z"/><path d="m312 256h16v16h-16z"/></svg>