<svg id="Capa_1" enable-background="new 0 0 511.996 511.996" height="512" viewBox="0 0 511.996 511.996" width="512" xmlns="http://www.w3.org/2000/svg"><g><g><g><path d="m411.262 283.673 57.62 15.445c21.009 5.631 35.618 24.671 35.618 46.422v81.391h-236.459v-81.391c0-21.751 14.608-40.791 35.618-46.422l57.62-15.445z" fill="#e28086"/></g><g><path d="m400.322 343.349c0-24.607-12.78-46.917-32.74-59.676h-6.304l-57.62 15.445c-21.009 5.631-35.618 24.671-35.618 46.422v81.391h132.281v-83.582z" fill="#dd636e"/></g><g><path d="m476.409 301.821c2.622 5.96 4.061 12.516 4.061 19.339v105.77h24.03v-81.39c0-19.046-11.201-36.012-28.091-43.719z" fill="#dd636e"/></g><g><path d="m386.27 308.665c-13.803 0-24.992-11.189-24.992-24.992v-30.759h49.983v30.759c.001 13.803-11.188 24.992-24.991 24.992z" fill="#e2a770"/></g><g><path d="m330.52 148.142v55.75c0 30.79 24.96 55.75 55.751 55.75s55.751-24.96 55.751-55.75v-55.75z" fill="#f1b986"/></g><g><path d="m424.719 167.366h17.302v-29.838c0-15.626-12.668-28.294-28.294-28.294h-8.232v38.908c0 10.617 8.607 19.224 19.224 19.224z" fill="#454045"/></g><g><path d="m386.27 167.366h-55.75v-31.906c0-24.04 19.488-43.528 43.528-43.528h14.145c9.556 0 17.302 7.746 17.302 17.302v38.908c0 10.617-8.607 19.224-19.225 19.224z" fill="#544f57"/></g></g><g><g><path d="m150.721 283.673 57.62 15.445c21.009 5.631 35.618 24.671 35.618 46.422v81.391h-236.459v-81.391c0-21.751 14.608-40.791 35.618-46.422l57.62-15.445z" fill="#bed8fb"/></g><g><path d="m243.959 426.93v-81.39c0-21.751-14.608-40.791-35.618-46.422l-57.62-15.445h-6.304c-19.96 12.759-32.739 35.069-32.739 59.676v83.582h132.281z" fill="#9dc6fb"/></g><g><path d="m125.73 308.665c-13.803 0-24.992-11.189-24.992-24.992v-30.759h49.983v30.759c0 13.803-11.189 24.992-24.991 24.992z" fill="#e2a770"/></g><g><path d="m69.979 148.142v55.75c0 30.79 24.96 55.75 55.751 55.75s55.751-24.96 55.751-55.75v-55.75z" fill="#f1b986"/></g><g><path d="m164.178 167.366h17.302v-29.838c0-15.626-12.668-28.294-28.294-28.294h-8.232v38.908c0 10.617 8.607 19.224 19.224 19.224z" fill="#454045"/></g><g><path d="m125.73 167.366h-55.751v-31.906c0-24.04 19.488-43.528 43.528-43.528h14.145c9.556 0 17.302 7.746 17.302 17.302v38.908c0 10.617-8.607 19.224-19.224 19.224z" fill="#544f57"/></g></g><g><g><path d="m181.467 188.232h149.693v133.509h-149.693z" fill="#ebb044"/></g><g><g><path d="m331.16 188.232h-16.183v-32.366h16.183c8.938 0 16.183 7.245 16.183 16.183-.001 8.937-7.246 16.183-16.183 16.183z" fill="#f1d0a5"/></g><g><path d="m282.611 278.249 60.631 16.251c22.107 5.926 37.479 25.96 37.479 48.847v113.925h-248.814v-113.924c0-22.887 15.372-42.922 37.479-48.847l60.631-16.251h52.594z" fill="#5986cb"/></g><g><path d="m256.313 278.249h26.297l30.97 8.301-6.421 23.188s-15.445 50.437-50.846 50.437-50.846-50.437-50.846-50.437l-6.421-23.188 30.97-8.301z" fill="#e2dfe2"/></g><g><path d="m230.016 278.249-30.97 8.301 6.421 23.188c3.922 14.161 21.157 19.548 32.445 10.141l18.4-15.334v-26.297h-26.296z" fill="#efecef"/></g><g><path d="m282.611 278.249 30.97 8.301-6.421 23.188c-3.922 14.161-21.157 19.548-32.445 10.141l-18.4-15.334v-26.297h26.296z" fill="#efecef"/></g><g><path d="m351.161 297.346c2.759 6.271 4.273 13.169 4.273 20.349v139.578h25.286v-113.925c0-20.04-11.786-37.893-29.559-46.002z" fill="#4278c3"/></g><g><path d="m256.313 304.547c-14.524 0-26.297-11.774-26.297-26.297v-32.366h52.595v32.366c0 14.523-11.774 26.297-26.298 26.297z" fill="#f1d0a5"/></g><g><path d="m230.016 266.533c8.208 2.997 17.065 4.636 26.297 4.636 9.233 0 18.089-1.639 26.297-4.636v-20.65h-52.595v20.65z" fill="#f1b986"/></g><g><path d="m197.65 135.637v58.663c0 32.399 26.264 58.663 58.663 58.663s58.663-26.264 58.663-58.663v-58.663z" fill="#f1d0a5"/></g><g><path d="m181.467 188.232h16.183v-32.366h-16.183c-8.938 0-16.183 7.245-16.183 16.183 0 8.937 7.245 16.183 16.183 16.183z" fill="#f1d0a5"/></g><g><path d="m294.748 135.637v78.892c0 11.012-3.041 21.312-8.319 30.116 17.099-10.251 28.547-28.958 28.547-50.345v-58.663z" fill="#f1b986"/></g><g><path d="m296.771 155.866c2.431 0 4.604 1.515 5.444 3.796l12.761 34.638v-38.434h14.16v-42.48c0-22.344-18.113-40.457-40.457-40.457h-12.137v62.709c0 11.171 9.057 20.228 20.229 20.228z" fill="#ebb044"/></g><g><path d="m256.313 155.866h-3.557c-18.029 0-34.896 8.897-45.076 23.776l-10.03 14.658v-38.434h-16.183v-40.457c0-33.516 27.17-60.686 60.686-60.686h16.183c10.055 0 18.206 8.151 18.206 18.206v62.709c0 11.171-9.057 20.228-20.229 20.228z" fill="#ffd064"/></g></g></g><path d="m504.496 369.629c4.142 0 7.5-3.357 7.5-7.5v-16.588c0-25.103-16.932-47.17-41.172-53.663l-52.061-13.958v-19.785c18.411-11.07 30.759-31.239 30.759-54.242v-66.364c0-19.737-16.057-35.794-35.794-35.794h-1.894c-3.186-10.021-12.578-17.302-23.64-17.302h-14.146c-15.477 0-29.356 6.935-38.722 17.851-5.024-21.106-24.024-36.855-46.646-36.855h-5.756c-3.217-10.527-13.021-18.206-24.587-18.206h-16.183c-35.318 0-64.446 26.992-67.849 61.429-5.924-4.344-13.225-6.917-21.118-6.917h-1.894c-3.187-10.021-12.578-17.302-23.64-17.302h-14.145c-28.137 0-51.028 22.891-51.028 51.027v68.433c0 23.003 12.347 43.172 30.759 54.242v19.784l-52.063 13.959c-24.244 6.493-41.176 28.56-41.176 53.663v19.793c0 4.143 3.358 7.5 7.5 7.5s7.5-3.357 7.5-7.5v-19.793c0-18.325 12.359-34.435 30.057-39.175l49.573-13.291c4.042 13.345 16.452 23.09 31.099 23.09 1.957 0 3.872-.184 5.735-.517-4.521 8.308-7.057 17.777-7.057 27.701v26.149c0 4.143 3.358 7.5 7.5 7.5s7.5-3.357 7.5-7.5v-26.149c0-19.458 13.126-36.565 31.92-41.604l22.476-6.024s4.989 17.765 5.158 18.224c3.266 9.401 18.405 47.701 49.852 53.095v82.733h-55.8v-53.186c0-4.143-3.358-7.5-7.5-7.5s-7.5 3.357-7.5 7.5v53.186h-38.606v-45.335c0-4.143-3.358-7.5-7.5-7.5s-7.5 3.357-7.5 7.5v14.992h-58.463v-11.725c0-4.143-3.358-7.5-7.5-7.5s-7.5 3.357-7.5 7.5v11.725h-35.944v-19.025c0-4.143-3.358-7.5-7.5-7.5s-7.5 3.357-7.5 7.5v26.525c0 4.143 3.358 7.5 7.5 7.5h116.907v22.843c0 4.143 3.358 7.5 7.5 7.5h248.813c4.142 0 7.5-3.357 7.5-7.5v-22.841h116.276c4.142 0 7.5-3.357 7.5-7.5v-29.833c0-4.143-3.358-7.5-7.5-7.5s-7.5 3.357-7.5 7.5v22.333h-35.94v-11.727c0-4.143-3.358-7.5-7.5-7.5s-7.5 3.357-7.5 7.5v11.727h-57.836v-76.084c0-9.874-2.509-19.298-6.987-27.576 1.642.257 3.324.392 5.038.392 14.647 0 27.056-9.744 31.099-23.089l49.571 13.29c17.696 4.74 30.055 20.85 30.055 39.175v16.588c0 4.143 3.358 7.501 7.5 7.501zm-118.225-117.487c-23.949 0-43.87-17.542-47.611-40.45v-17.185c8.534-2.858 14.914-10.448 16.009-19.642h31.602c7.543 0 14.361-3.146 19.224-8.189 4.864 5.043 11.682 8.189 19.224 8.189h9.802v29.026c0 26.607-21.645 48.251-48.25 48.251zm-86.307 55.473c-.066.205-.261.803-.587 1.714-1.443 3.448-4.254 6.016-7.916 7.161-4.205 1.314-8.561.451-11.946-2.371l-7.281-6.067c7.933-4.255 13.974-11.586 16.532-20.387l15.568 4.173zm-77.448-35.12-33.549 8.992.013-85.755h1.206c.504 23.542 13.351 44.093 32.33 55.418zm-48.549-27.756v37.399l-15.746-4.22v-19.784c5.957-3.582 11.272-8.12 15.746-13.395zm7.5-81.373h8.683v17.366h-8.683c-4.788 0-8.683-3.896-8.683-8.684s3.895-8.682 8.683-8.682zm95.074-8.791c4.809 5.134 11.54 8.447 19.036 8.766l11.868 32.211c-.669 27.633-23.34 49.912-51.132 49.912-27.461 0-49.93-21.749-51.106-48.926l8.663-12.661c8.787-12.844 23.324-20.511 38.886-20.511h3.557c7.973 0 15.165-3.387 20.228-8.791zm54.619 8.791c4.788 0 8.683 3.895 8.683 8.683s-3.895 8.684-8.683 8.684h-8.683v-17.366h8.683zm-93.644 94.362c5.962 1.77 12.268 2.736 18.797 2.736s12.835-.966 18.797-2.736v20.522c0 10.364-8.433 18.797-18.797 18.797s-18.797-8.433-18.797-18.797zm52.594 14.767v-21.345c18.979-11.326 31.826-31.876 32.33-55.418h1.219v85.755zm63.669 5.422-15.119 4.052v-36.508c4.342 4.967 9.437 9.256 15.119 12.673zm80.742-140.389v22.338h-9.802c-6.465 0-11.725-5.26-11.725-11.725v-31.407h.732c11.467 0 20.795 9.328 20.795 20.794zm-60.474-38.096h14.146c5.405 0 9.802 4.397 9.802 9.802v38.907c0 6.465-5.259 11.725-11.724 11.725h-34.811c-2.998-4.976-7.773-8.764-13.44-10.483v-13.923c0-19.866 16.162-36.028 36.027-36.028zm-52.41 13.953v34.98h-6.66c-3.532 0-6.486 2.444-7.282 5.732-2.449-3.519-6.516-5.732-10.924-5.732-7.019 0-12.729-5.71-12.729-12.729v-55.208h4.637c18.173 0 32.958 14.785 32.958 32.957zm-79.484-51.163h16.183c5.903 0 10.706 4.803 10.706 10.706v62.709c0 7.019-5.71 12.729-12.729 12.729h-3.557c-18.486 0-35.871 8.209-47.606 22.218v-14.718c0-4.143-3.358-7.5-7.5-7.5h-8.683v-32.958c0-29.326 23.859-53.186 53.186-53.186zm-68.186 75.046v12.323c-5.253 1.759-9.69 5.309-12.581 9.926-5.119-1.258-8.932-5.874-8.932-11.375v-31.407h.732c11.378-.001 20.639 9.188 20.781 20.533zm-96.488-1.808c0-19.865 16.162-36.027 36.028-36.027h14.145c5.405 0 9.802 4.397 9.802 9.802v38.907c0 6.465-5.26 11.725-11.725 11.725h-48.25zm0 68.432v-29.026h48.25c7.543 0 14.361-3.146 19.224-8.189 3.465 3.592 7.921 6.218 12.925 7.432.826 9.538 7.327 17.471 16.101 20.403v9.119c-.003.087-.013.781-.013.781-.281 26.366-21.806 47.731-48.237 47.731-26.605-.001-48.25-21.645-48.25-48.251zm30.759 79.781v-19.01c5.559 1.603 11.423 2.479 17.492 2.479s11.932-.877 17.492-2.479v19.01c0 9.646-7.847 17.492-17.492 17.492s-17.492-7.847-17.492-17.492zm115.622 3.991c2.558 8.801 8.598 16.132 16.532 20.387l-7.281 6.068c-3.384 2.822-7.739 3.686-11.945 2.371-3.663-1.145-6.474-3.713-7.917-7.162-.329-.92-.525-1.52-.588-1.715l-4.369-15.776zm.836 44.404c.102.001.204.011.305.011 6.386 0 12.648-2.217 17.713-6.438l13.599-11.333 13.599 11.333c5.065 4.222 11.327 6.438 17.713 6.438.101 0 .203-.01.305-.011-7.212 10.594-17.706 20.607-31.617 20.607-13.911.001-24.405-10.013-31.617-20.607zm148.524 117.705h-38.606v-53.186c0-4.143-3.358-7.5-7.5-7.5s-7.5 3.357-7.5 7.5v53.186h-55.801v-82.733c31.447-5.395 46.587-43.695 49.852-53.095.169-.459 5.158-18.224 5.158-18.224l22.476 6.024c18.794 5.038 31.92 22.146 31.92 41.604v106.424zm13.051-148.608c-9.645 0-17.492-7.847-17.492-17.492v-19.01c5.559 1.603 11.423 2.479 17.492 2.479s11.932-.877 17.492-2.479v19.01c-.001 9.645-7.847 17.492-17.492 17.492z"/></g></svg>