<svg id="Capa_1" enable-background="new 0 0 512 512" height="512" viewBox="0 0 512 512" width="512" xmlns="http://www.w3.org/2000/svg"><g><g><g><g><path d="m502 186.162v-62.896c0-23.006-18.644-41.655-41.643-41.655h-296.042l-12.135-17.413c-4.747-6.812-12.523-10.872-20.824-10.872h-79.714c-22.998 0-41.642 18.65-41.642 41.655v91.18" fill="#ffcb7c"/></g></g><g><g><path d="m44.964 163.424v-22.798c0-9.195 7.451-16.648 16.643-16.648h388.786c9.192 0 16.643 7.454 16.643 16.648v22.798" fill="#e5ecec"/></g></g><g><path d="m502 351.987v63.736c0 23.721-19.224 42.951-42.938 42.951h-406.124c-23.714 0-42.938-19.23-42.938-42.951v-229.561c0-12.558 10.177-22.738 22.731-22.738h446.538c12.554 0 22.731 10.18 22.731 22.738v61.169" fill="#ffd89e"/></g><g><g><path d="m502 307.52c-4.125 0-7.891-2.639-9.351-6.486-1.49-3.927-.28-8.536 2.962-11.213 3.1-2.56 7.553-3.013 11.1-1.122 3.773 2.011 5.892 6.364 5.134 10.576-.846 4.696-5.069 8.245-9.845 8.245z"/></g></g></g><g><g><g><g><g><ellipse cx="136.472" cy="302.555" fill="#ffcbbe" rx="48.185" ry="48.2"/></g><g><path d="m136.471 360.755c-32.083 0-58.185-26.108-58.185-58.199 0-32.092 26.101-58.2 58.185-58.2 32.083 0 58.185 26.108 58.185 58.2 0 32.091-26.101 58.199-58.185 58.199zm0-96.4c-21.055 0-38.185 17.137-38.185 38.2s17.129 38.199 38.185 38.199c21.055 0 38.185-17.136 38.185-38.199s-17.129-38.2-38.185-38.2z"/></g></g><g><path d="m197.236 394.393c0-8.872-7.195-16.069-16.064-16.069h-85.398c-8.869 0-16.064 7.197-16.064 16.069v64.281h117.527v-64.281z" fill="#c4ead9"/></g></g><g><g><g><ellipse cx="256" cy="302.555" fill="#ffcbbe" rx="48.185" ry="48.2"/></g><g><path d="m256 360.755c-32.084 0-58.185-26.108-58.185-58.199 0-32.092 26.102-58.2 58.185-58.2s58.185 26.108 58.185 58.2c0 32.091-26.102 58.199-58.185 58.199zm0-96.4c-21.055 0-38.185 17.137-38.185 38.2s17.13 38.199 38.185 38.199 38.185-17.136 38.185-38.199-17.13-38.2-38.185-38.2z"/></g></g><g><path d="m314.763 394.393c0-8.872-7.195-16.069-16.064-16.069h-85.399c-8.869 0-16.064 7.197-16.064 16.069v64.281h117.527z" fill="#f5737f"/></g></g><g><g><g><ellipse cx="375.528" cy="302.555" fill="#ffcbbe" rx="48.185" ry="48.2"/></g><g><path d="m375.528 360.755c-32.083 0-58.185-26.108-58.185-58.199 0-32.092 26.102-58.2 58.185-58.2s58.185 26.108 58.185 58.2c0 32.091-26.101 58.199-58.185 58.199zm0-96.4c-21.055 0-38.185 17.137-38.185 38.2s17.129 38.199 38.185 38.199c21.055 0 38.185-17.136 38.185-38.199s-17.13-38.2-38.185-38.2z"/></g></g><g><g><g><path d="m432.291 394.393c0-8.872-7.195-16.069-16.064-16.069h-85.399c-8.869 0-16.064 7.197-16.064 16.069v64.281h117.527z" fill="#8481e2"/></g><path d="m460.357 71.611h-290.822l-9.15-13.132c-6.613-9.488-17.464-15.153-29.028-15.153h-79.714c-28.477 0-51.643 23.173-51.643 51.655v320.741c0 29.197 23.748 52.951 52.938 52.951h406.124c29.19 0 52.938-23.754 52.938-52.951v-63.735c0-5.522-4.477-10-10-10s-10 4.478-10 10v63.735c0 18.169-14.776 32.951-32.938 32.951h-16.772v-54.281c0-14.375-11.692-26.069-26.064-26.069h-85.399c-6.057 0-11.633 2.083-16.064 5.563-4.43-3.48-10.007-5.563-16.064-5.563h-85.398c-6.057 0-11.634 2.083-16.064 5.563-4.43-3.48-10.007-5.563-16.064-5.563h-85.4c-14.371 0-26.064 11.694-26.064 26.069v54.281h-16.771c-18.162.001-32.938-14.781-32.938-32.95v-229.562c0-7.023 5.711-12.737 12.731-12.737h446.538c7.02 0 12.731 5.714 12.731 12.737v61.17c0 5.522 4.477 10 10 10s10-4.478 10-10v-124.065c0-28.483-23.167-51.655-51.643-51.655zm-129.529 316.712h85.399c3.344 0 6.064 2.723 6.064 6.069v54.281h-97.527v-54.281c0-3.346 2.72-6.069 6.064-6.069zm-117.527 0h85.398c3.344 0 6.065 2.723 6.065 6.069v54.281h-97.527v-54.281c-.001-3.346 2.72-6.069 6.064-6.069zm-123.592 6.07c0-3.347 2.72-6.069 6.064-6.069h85.399c3.344 0 6.064 2.723 6.064 6.069v54.281h-97.527zm367.327-240.969h-402.072v-12.798c0-3.666 2.98-6.649 6.644-6.649h388.785c3.663 0 6.643 2.983 6.643 6.649zm22.233 0h-2.233v-12.798c0-14.694-11.952-26.649-26.643-26.649h-388.786c-14.691 0-26.644 11.954-26.644 26.649v12.798h-2.233c-4.513 0-8.816.918-12.731 2.578v-61.02c0-17.455 14.195-31.655 31.643-31.655h79.713c5.027 0 9.745 2.463 12.62 6.588l12.134 17.414c1.87 2.684 4.934 4.283 8.205 4.283h296.043c17.448 0 31.643 14.2 31.643 31.654v32.736c-3.915-1.66-8.218-2.578-12.731-2.578z"/></g></g></g></g></g></g></svg>