<svg height="512" viewBox="0 0 512 512" width="512" xmlns="http://www.w3.org/2000/svg"><g><g><circle cx="256" cy="120" fill="#ff9811" r="104"/><circle cx="256" cy="120" fill="#ffda44" r="80"/><path d="m288 248h64a0 0 0 0 1 0 0v32a32 32 0 0 1 -32 32h-64a0 0 0 0 1 0 0v-32a32 32 0 0 1 32-32z" fill="#91cc04" transform="matrix(-1 0 0 -1 608 560)"/><path d="m160 272h64a32 32 0 0 1 32 32v32a0 0 0 0 1 0 0h-64a32 32 0 0 1 -32-32v-32a0 0 0 0 1 0 0z" fill="#91cc04"/><g fill="#c6c5ca"><path d="m312 272-56 32"/><path d="m200 304 56 32"/><path d="m256 224v160"/><path d="m304 344-48 16"/></g><path d="m144 384h224v32h-224z" fill="#5f4d37" transform="matrix(-1 0 0 -1 512 800)"/><path d="m176 496h160l16-80h-192z" fill="#a0815c"/><path d="m383 496h-287" fill="#c6c5ca"/></g><g><path d="m256 32a88 88 0 1 0 88 88 88.1 88.1 0 0 0 -88-88zm0 160a72 72 0 1 1 72-72 72.083 72.083 0 0 1 -72 72z"/><path d="m383 488h-37.24l12.8-64h9.44a8 8 0 0 0 8-8v-32a8 8 0 0 0 -8-8h-104v-10.23l42.53-14.18a8 8 0 0 0 -5.06-15.18l-37.47 12.49v-28.9h56a40.04 40.04 0 0 0 40-40v-32a8 8 0 0 0 -8-8h-64a39.808 39.808 0 0 0 -24 8.02v-16.31a112 112 0 1 0 -16 0v40.31a39.808 39.808 0 0 0 -24-8.02h-64a8 8 0 0 0 -8 8v32a40.04 40.04 0 0 0 40 40h56v32h-104a8 8 0 0 0 -8 8v32a8 8 0 0 0 8 8h9.44l12.8 64h-70.24a8 8 0 0 0 0 16h287a8 8 0 0 0 0-16zm-95-232h56v24a24.032 24.032 0 0 1 -24 24h-47.88l43.85-25.05a8 8 0 0 0 -7.94-13.9l-44.03 25.16v-10.21a24.032 24.032 0 0 1 24-24zm-128-136a96 96 0 1 1 96 96 96.115 96.115 0 0 1 -96-96zm36.03 190.95 29.85 17.05h-33.88a24.032 24.032 0 0 1 -24-24v-24h56a24.032 24.032 0 0 1 24 24v18.21l-44.03-25.16a8 8 0 1 0 -7.94 13.9zm-44.03 97.05v-16h208v16zm177.44 80h-146.88l-12.8-64h172.48z"/><path d="m280 120v24a8 8 0 0 1 -8 8h-8a8 8 0 0 1 -16 0h-8a8 8 0 0 1 0-16h24v-8h-24a8 8 0 0 1 -8-8v-24a8 8 0 0 1 8-8h8a8 8 0 0 1 16 0h8a8 8 0 0 1 0 16h-24v8h24a8 8 0 0 1 8 8z"/><path d="m416 488h-8a8 8 0 0 0 0 16h8a8 8 0 0 0 0-16z"/></g></g></svg>