<svg height="512" viewBox="0 0 512 512" width="512" xmlns="http://www.w3.org/2000/svg"><g id="filled_outline" data-name="filled outline"><rect fill="#79a73a" height="240" rx="12" width="432" x="24" y="240"/><path d="m400 448h-320a24 24 0 0 0 -24-24v-128a24 24 0 0 0 24-24h320a24 24 0 0 0 24 24v128a24 24 0 0 0 -24 24z" fill="#aac16b"/><circle cx="240" cy="360" fill="#79a73a" r="56"/><path d="m360 448h128v32h-128z" fill="#fbb540"/><path d="m384 448h16v32h-16z" fill="#ea9d2d"/><path d="m416 448h16v32h-16z" fill="#ea9d2d"/><path d="m448 448h16v32h-16z" fill="#ea9d2d"/><path d="m352 416h128v32h-128z" fill="#ea9d2d"/><path d="m376 416h16v32h-16z" fill="#d18d28"/><path d="m408 416h16v32h-16z" fill="#d18d28"/><path d="m440 416h16v32h-16z" fill="#d18d28"/><path d="m360 384h128v32h-128z" fill="#fbb540"/><path d="m384 384h16v32h-16z" fill="#ea9d2d"/><path d="m416 384h16v32h-16z" fill="#ea9d2d"/><path d="m448 384h16v32h-16z" fill="#ea9d2d"/><path d="m352 352h128v32h-128z" fill="#ea9d2d"/><path d="m376 352h16v32h-16z" fill="#d18d28"/><path d="m408 352h16v32h-16z" fill="#d18d28"/><path d="m440 352h16v32h-16z" fill="#d18d28"/><path d="m360 320h128v32h-128z" fill="#fbb540"/><path d="m384 320h16v32h-16z" fill="#ea9d2d"/><path d="m416 320h16v32h-16z" fill="#ea9d2d"/><path d="m448 320h16v32h-16z" fill="#ea9d2d"/><path d="m240 56a164.043 164.043 0 0 1 -71.456 30.576l-8.544 1.424v69.356a128 128 0 0 0 54.6 104.862l25.4 17.782 25.4-17.782a128 128 0 0 0 54.6-104.862v-69.356l-8.544-1.424a164.043 164.043 0 0 1 -71.456-30.576z" fill="#009cf7"/><path d="m240 192.012a25.383 25.383 0 0 1 -16.517-5.948 20.855 20.855 0 0 1 -7.483-15.764 8 8 0 0 1 16 0 4.848 4.848 0 0 0 1.89 3.61 9.974 9.974 0 0 0 12.22 0 4.852 4.852 0 0 0 1.89-3.61v-1.175a5.233 5.233 0 0 0 -2.723-4.229l-19.2-12.33a21.166 21.166 0 0 1 -10.077-17.691v-1.175a20.855 20.855 0 0 1 7.483-15.764 25.906 25.906 0 0 1 33.034 0 20.855 20.855 0 0 1 7.483 15.764 8 8 0 0 1 -16 0 4.848 4.848 0 0 0 -1.89-3.61 9.974 9.974 0 0 0 -12.22 0 4.852 4.852 0 0 0 -1.89 3.61v1.175a5.233 5.233 0 0 0 2.723 4.229l19.2 12.33a21.166 21.166 0 0 1 10.077 17.691v1.175a20.855 20.855 0 0 1 -7.483 15.764 25.388 25.388 0 0 1 -16.517 5.948z" fill="#007af6"/><path d="m240 208a8 8 0 0 1 -8-8v-16a8 8 0 0 1 16 0v16a8 8 0 0 1 -8 8z" fill="#007af6"/><path d="m240 128a8 8 0 0 1 -8-8v-16a8 8 0 0 1 16 0v16a8 8 0 0 1 -8 8z" fill="#007af6"/><path d="m248.008 240a8 8 0 0 1 -4.124-14.861 74.764 74.764 0 0 0 36.116-63.786v-41.353a8 8 0 0 1 16 0v41.353a90.845 90.845 0 0 1 -43.884 77.507 7.966 7.966 0 0 1 -4.108 1.14z" fill="#41b2ff"/><path d="m104 160a8 8 0 0 1 -8-8v-8a8 8 0 0 1 16 0v8a8 8 0 0 1 -8 8z" fill="#ea9d2d"/><path d="m104 200a8 8 0 0 1 -8-8v-8a8 8 0 0 1 16 0v8a8 8 0 0 1 -8 8z" fill="#ea9d2d"/><path d="m128 176h-8a8 8 0 0 1 0-16h8a8 8 0 0 1 0 16z" fill="#ea9d2d"/><path d="m88 176h-8a8 8 0 0 1 0-16h8a8 8 0 0 1 0 16z" fill="#ea9d2d"/><g fill="#fbb540"><path d="m352 48a8 8 0 0 1 -8-8v-8a8 8 0 0 1 16 0v8a8 8 0 0 1 -8 8z"/><path d="m352 88a8 8 0 0 1 -8-8v-8a8 8 0 0 1 16 0v8a8 8 0 0 1 -8 8z"/><path d="m376 64h-8a8 8 0 0 1 0-16h8a8 8 0 0 1 0 16z"/><path d="m336 64h-8a8 8 0 0 1 0-16h8a8 8 0 0 1 0 16z"/></g><circle cx="296" cy="416" fill="#ea9d2d" r="64"/><path d="m296 384a32 32 0 1 1 -32 32 32 32 0 0 1 32-32" fill="#fbb540"/><path d="m295.7 376a40 40 0 1 0 40 40 40.046 40.046 0 0 0 -40-40zm0 64a24 24 0 1 1 24-24 24.028 24.028 0 0 1 -24 24z"/><path d="m487.7 312h-24v-60a20.022 20.022 0 0 0 -20-20h-138.351a136.037 136.037 0 0 0 22.351-74.644v-69.356a8 8 0 0 0 -6.685-7.891l-8.544-1.424a156.7 156.7 0 0 1 -67.971-29.085 8 8 0 0 0 -9.6 0 156.7 156.7 0 0 1 -67.972 29.085l-8.544 1.424a8 8 0 0 0 -6.684 7.891v69.356a136.038 136.038 0 0 0 22.342 74.644h-138.342a20.023 20.023 0 0 0 -20 20v216a20.023 20.023 0 0 0 20 20h452a8 8 0 0 0 8-8v-32a8 8 0 0 0 -8-8v-16a8 8 0 0 0 8-8v-32a8 8 0 0 0 -8-8v-16a8 8 0 0 0 8-8v-32a8 8 0 0 0 -8-8zm-8 32h-16v-16h16zm0 64h-16v-16h16zm-32 64h-16v-16h16zm-88-32v-16h16v16zm-64 32a56.059 56.059 0 0 1 -55.989-55.567 7.976 7.976 0 0 0 .023-1.759 56.045 56.045 0 0 1 54.636-54.64 7.988 7.988 0 0 0 1.767-.023 56.074 56.074 0 0 1 54.986 48.018 8 8 0 0 0 -7.423 7.971v28.849a56.182 56.182 0 0 1 -48 27.151zm-69.95-192 9.362 6.554a8 8 0 0 0 9.176 0l9.358-6.554h139.062a32.12 32.12 0 0 0 22.992 22.988v9.012h-56a8 8 0 0 0 -8 8v24a8 8 0 0 0 -8 8v10.392a71.707 71.707 0 0 0 -41.967-18.12 64 64 0 1 0 -77.761 77.761 71.423 71.423 0 0 0 3.852 17.967h-141.141a32.121 32.121 0 0 0 -22.983-22.988v-114.024a32.121 32.121 0 0 0 22.983-22.988zm189.95 128h-16v-16h16zm-48 0v-16h16v16zm8-32h-16v-16h16zm8-32h-16v-16h16zm24 32h-16v-16h16zm-8-32v-16h16v16zm-175.234 61.528a48 48 0 1 1 60.756-60.758 72.152 72.152 0 0 0 -60.756 60.758zm167.234 18.472h16v16h-16zm24 32v16h-16v-16zm24-16h-16v-16h16zm-8-32v-16h16v16zm8-32h-16v-16h16zm-8-32v-16h16v16zm12-96a4 4 0 0 1 4 4v60h-16v-16a8 8 0 0 0 -8-8 16.019 16.019 0 0 1 -16-16 8 8 0 0 0 -8-8h-123.613a135.765 135.765 0 0 0 16.971-16zm-276-153.223 1.86-.31a172.844 172.844 0 0 0 70.14-28.6 172.854 172.854 0 0 0 70.141 28.6l1.859.31v62.579a120.1 120.1 0 0 1 -51.184 98.308l-20.816 14.571-20.82-14.571a120.1 120.1 0 0 1 -51.18-98.308zm-132 377.223a4 4 0 0 1 -4-4v-216a4 4 0 0 1 4-4h150.633a135.7 135.7 0 0 0 16.967 16h-123.605a8 8 0 0 0 -8 8 16.018 16.018 0 0 1 -16 16 8 8 0 0 0 -8 8v128a8 8 0 0 0 8 8 16.018 16.018 0 0 1 16 16 8 8 0 0 0 8 8h156.167a72.6 72.6 0 0 0 14.648 16zm316-10.758v10.758h-10.8a72.026 72.026 0 0 0 10.8-10.758zm16-5.242h16v16h-16zm112 16h-16v-16h16zm-8-32h-16v-16h16zm0-64h-16v-16h16z"/><path d="m245.806 173.911a9.446 9.446 0 0 1 -6.1 2.089h-.019a9.434 9.434 0 0 1 -6.1-2.089 4.85 4.85 0 0 1 -1.89-3.611 8 8 0 0 0 -16 0 20.855 20.855 0 0 0 7.483 15.764 24.482 24.482 0 0 0 8.517 4.69v9.246a8 8 0 0 0 16 0v-9.246a24.473 24.473 0 0 0 8.517-4.69 20.852 20.852 0 0 0 7.486-15.764v-1.175a21.164 21.164 0 0 0 -10.077-17.691l-19.2-12.33a5.235 5.235 0 0 1 -2.723-4.229v-1.175a4.849 4.849 0 0 1 1.889-3.61 9.442 9.442 0 0 1 6.1-2.09h.019a9.435 9.435 0 0 1 6.1 2.09 4.85 4.85 0 0 1 1.889 3.61 8 8 0 0 0 16 0 20.852 20.852 0 0 0 -7.483-15.764 24.473 24.473 0 0 0 -8.517-4.69v-9.246a8 8 0 0 0 -16 0v9.246a24.482 24.482 0 0 0 -8.518 4.691 20.854 20.854 0 0 0 -7.479 15.763v1.175a21.167 21.167 0 0 0 10.076 17.691l19.2 12.33a5.234 5.234 0 0 1 2.722 4.229v1.175a4.854 4.854 0 0 1 -1.892 3.611z"/><path d="m243.579 225.14a8 8 0 1 0 8.233 13.72 90.847 90.847 0 0 0 43.888-77.507v-41.353a8 8 0 0 0 -16 0v41.353a74.764 74.764 0 0 1 -36.121 63.787z"/><path d="m111.7 144a8 8 0 0 0 -16 0v8a8 8 0 0 0 16 0z"/><path d="m103.7 200a8 8 0 0 0 8-8v-8a8 8 0 0 0 -16 0v8a8 8 0 0 0 8 8z"/><path d="m119.7 176h8a8 8 0 0 0 0-16h-8a8 8 0 0 0 0 16z"/><path d="m87.7 160h-8a8 8 0 0 0 0 16h8a8 8 0 0 0 0-16z"/><path d="m359.7 32a8 8 0 0 0 -16 0v8a8 8 0 0 0 16 0z"/><path d="m351.7 88a8 8 0 0 0 8-8v-8a8 8 0 0 0 -16 0v8a8 8 0 0 0 8 8z"/><path d="m367.7 64h8a8 8 0 0 0 0-16h-8a8 8 0 0 0 0 16z"/><path d="m335.7 48h-8a8 8 0 0 0 0 16h8a8 8 0 0 0 0-16z"/></g></svg>