<svg id="Layer_1" enable-background="new 0 0 512 512" height="512" viewBox="0 0 512 512" width="512" xmlns="http://www.w3.org/2000/svg"><g><path d="m325.973 117h60v104h-60z" fill="#dd7f66"/><path d="m355.973 117h30v104h-30z" fill="#d6694b"/><path d="m391.973 117h-72c-2.209 0-4-1.791-4-4v-22c0-2.209 1.791-4 4-4h72c2.209 0 4 1.791 4 4v22c0 2.209-1.79 4-4 4z" fill="#f3f0f3"/><path d="m391.973 87h-30c2.209 0 4 1.791 4 4v22c0 2.209-1.791 4-4 4h30c2.209 0 4-1.791 4-4v-22c0-2.209-1.79-4-4-4z" fill="#e2dee2"/><path d="m406 395h-300v-161.375l150-115.125 150 115.116z" fill="#dd7f66"/><path d="m376 210.593v184.407h30v-161.384z" fill="#d6694b"/><path d="m437.132 237.599-171.999-132c-5.387-4.133-12.878-4.133-18.265 0l-171.999 132c-6.572 5.044-7.811 14.46-2.768 21.032 5.044 6.571 14.46 7.81 21.032 2.768l162.867-124.991 162.867 124.991c2.724 2.09 5.935 3.101 9.122 3.101 4.503 0 8.957-2.021 11.911-5.869 5.043-6.571 3.803-15.988-2.768-21.032z" fill="#f3f0f3"/><path d="m335.973 278.077h40v66h-40z" fill="#a6e7f0"/><path d="m136 278.077h40v66h-40z" fill="#a6e7f0"/><path d="m489.5 425h-467c-8.284 0-15-6.716-15-15 0-8.284 6.716-15 15-15h467c8.284 0 15 6.716 15 15 0 8.284-6.716 15-15 15z" fill="#f3f0f3"/><path d="m489.5 395h-30c8.284 0 15 6.716 15 15s-6.716 15-15 15h30c8.284 0 15-6.716 15-15s-6.716-15-15-15z" fill="#e2dee2"/><path d="m211 278.077h90v116.923h-90z" fill="#ffd15b"/><path d="m271 278.077h30v116.923h-30z" fill="#ffc344"/><circle cx="256" cy="214.368" fill="#a6e7f0" r="30"/><g><path d="m489.5 387.5h-76v-120.766l.802.615c3.965 3.042 8.697 4.65 13.687 4.65 7.056 0 13.565-3.208 17.861-8.803 7.552-9.842 5.689-23.993-4.151-31.548l-48.229-37.012v-70.246c5.635-.737 10.004-5.559 10.004-11.391v-21.999c0-6.341-5.159-11.5-11.5-11.5h-10.154c-4.143 0-7.5 3.357-7.5 7.5s3.357 7.5 7.5 7.5h6.653v15h-65v-15h23.167c4.143 0 7.5-3.357 7.5-7.5s-3.357-7.5-7.5-7.5h-26.667c-6.341 0-11.5 5.159-11.5 11.5v22c0 5.83 4.365 10.649 9.996 11.39v12.689l-48.772-37.43c-8.064-6.188-19.329-6.188-27.396 0l-24.258 18.616c-3.286 2.522-3.905 7.23-1.384 10.517 2.522 3.284 7.23 3.906 10.517 1.384l24.257-18.616c2.689-2.063 6.444-2.063 9.132 0l172 131.999c3.28 2.519 3.901 7.236 1.385 10.516-1.432 1.865-3.605 2.936-5.962 2.936-1.658 0-3.233-.536-4.555-1.551l-162.867-124.993c-2.693-2.066-6.439-2.066-9.133 0l-162.866 124.992c-3.284 2.519-8 1.896-10.517-1.383-2.518-3.281-1.896-7.999 1.384-10.517l119.99-92.086c3.286-2.522 3.905-7.23 1.384-10.517-2.523-3.285-7.229-3.907-10.517-1.384l-119.989 92.088c-9.841 7.554-11.703 21.705-4.15 31.549 7.554 9.839 21.705 11.701 31.548 4.15l.801-.615v120.766h-76c-12.407 0-22.501 10.094-22.501 22.5s10.094 22.5 22.5 22.5h134.705c4.143 0 7.5-3.357 7.5-7.5s-3.357-7.5-7.5-7.5h-134.705c-4.136 0-7.5-3.364-7.5-7.5s3.364-7.5 7.5-7.5h467c4.136 0 7.5 3.364 7.5 7.5s-3.364 7.5-7.5 7.5h-297.833c-4.143 0-7.5 3.357-7.5 7.5s3.357 7.5 7.5 7.5h297.833c12.406 0 22.5-10.094 22.5-22.5s-10.094-22.5-22.5-22.5zm-156.03-263h45v58.625l-45-34.535zm-24.97 161.077h19.974v51.003h-19.974zm59.974 51h-25v-51h25zm15-51h15.026v51.003h-15.026zm-127.474-139.716 79.861 61.289h-43.065c-3.375-17.235-18.587-30.282-36.796-30.282s-33.421 13.047-36.796 30.282h-43.064zm-22.496 68.686c0-.06-.004-.119-.004-.178 0-12.406 10.094-22.5 22.5-22.5s22.5 10.094 22.5 22.5c0 .06-.004.119-.004.178 0 .035-.005.069-.005.104 0 .011.002.023.002.034-.171 12.26-10.192 22.184-22.492 22.184s-22.321-9.923-22.492-22.184c0-.011.002-.023.002-.034-.001-.036-.006-.069-.007-.104zm-76.91 7.603h62.723c3.593 16.955 18.673 29.718 36.683 29.718s33.09-12.763 36.683-29.718h62.337c.123 0 .242-.012.363-.018l43.118 33.091v15.354h-285v-15.354zm46.906 114.43h-20v-51.003h20zm-90-51.003h15v51.003h-15zm55 51h-25v-51h25zm-55 15.003h90v35.92h-90zm105 35.92v-101.923h75v101.923zm90 0v-35.92h90v35.92z"/><path d="m276 334c-4.143 0-7.5 3.357-7.5 7.5v8c0 4.143 3.357 7.5 7.5 7.5s7.5-3.357 7.5-7.5v-8c0-4.143-3.357-7.5-7.5-7.5z"/></g></g></svg>