<svg height="512" viewBox="0 0 128 128" width="512" xmlns="http://www.w3.org/2000/svg"><g><g><path d="m100.17 107.13h-72.34l1.28-28.9a16.987 16.987 0 0 1 16.97-16.23h35.84a16.987 16.987 0 0 1 16.97 16.23z" fill="#00acf3"/><path d="m46.077 62 10.256 11.667 7.667-4.167v-4l-12.001-3.5z" fill="#e6f7fb"/><path d="m81.923 62-10.256 11.667-7.667-4.167v-4l12.001-3.5z" fill="#b7e8f9"/><circle cx="64" cy="43.187" fill="#fccf00" r="22.313"/><path d="m65.75 41.637v-8.792a4.48 4.48 0 0 1 2.726 4.117 1.75 1.75 0 0 0 3.5 0 7.984 7.984 0 0 0 -6.226-7.775v-1.787a1.75 1.75 0 1 0 -3.5 0v1.783a7.968 7.968 0 0 0 0 15.551v8.796a4.48 4.48 0 0 1 -2.726-4.117 1.75 1.75 0 0 0 -3.5 0 7.984 7.984 0 0 0 6.226 7.775v1.783a1.75 1.75 0 1 0 3.5 0v-1.783a7.968 7.968 0 0 0 0-15.551zm-6.226-4.675a4.48 4.48 0 0 1 2.726-4.117v8.235a4.483 4.483 0 0 1 -2.726-4.118zm6.226 16.568v-8.23a4.473 4.473 0 0 1 0 8.235z" fill="#fda400"/><g fill="#009bf1"><path d="m87.32 84.56v22.57h-3.5v-22.57a1.75 1.75 0 0 1 3.5 0z"/><path d="m44.18 84.56v22.57h-3.5v-22.57a1.75 1.75 0 0 1 3.5 0z"/></g><path d="m59.086 72.171 4.914 6.412 4.914-6.412-4.914-2.671z" fill="#ff4155"/><path d="m64 78.583-4.914 28.542h9.828z" fill="#e80055"/><path d="m78.5 87.75h-4.875a1.75 1.75 0 0 1 0-3.5h4.875a1.75 1.75 0 0 1 0 3.5z" fill="#b7e8f9"/></g><g fill="#5b2300"><path d="m101.488 97.424a1.727 1.727 0 0 0 -1.825-1.67 1.749 1.749 0 0 0 -1.671 1.826l.427 9.623a1.749 1.749 0 0 0 1.747 1.672h.078a1.749 1.749 0 0 0 1.671-1.826z"/><path d="m99.451 92.748h.078a1.75 1.75 0 0 0 1.671-1.828l-.06-1.367a1.726 1.726 0 0 0 -1.826-1.671 1.75 1.75 0 0 0 -1.67 1.826l.06 1.367a1.75 1.75 0 0 0 1.747 1.673z"/><path d="m99.136 85.629h.079a1.749 1.749 0 0 0 1.67-1.825l-.251-5.652a18.7 18.7 0 0 0 -18.711-17.9h-.975a24.058 24.058 0 0 0 -28.8-38.007 1.75 1.75 0 1 0 1.726 3.045 20.541 20.541 0 1 1 -8.819 9.9 1.75 1.75 0 0 0 -3.225-1.37 24.051 24.051 0 0 0 5.222 26.43h-.975a18.7 18.7 0 0 0 -18.711 17.9l-1.281 28.9a1.749 1.749 0 0 0 1.671 1.826h.078a1.749 1.749 0 0 0 1.747-1.672l1.281-28.9a15.2 15.2 0 0 1 15.215-14.554h5.437a23.886 23.886 0 0 0 10.736 3.429v1.28l-5.525 3-4.2-4.784a1.75 1.75 0 0 0 -2.629 2.311l5.128 5.833a1.748 1.748 0 0 0 2.15.382l1.438-.781 3.539 4.617-4.785 27.788a1.75 1.75 0 0 0 3.45.594l3.184-18.519 3.189 18.525a1.751 1.751 0 0 0 1.723 1.453 1.792 1.792 0 0 0 .3-.025 1.751 1.751 0 0 0 1.428-2.022l-4.786-27.791 3.539-4.617 1.438.781a1.748 1.748 0 0 0 2.15-.382l9.7-11.035a15.188 15.188 0 0 1 14.457 14.519l.251 5.651a1.749 1.749 0 0 0 1.747 1.672zm-35.136-9.922-2.28-2.976 2.28-1.239 2.28 1.239zm7.275-4.245-5.525-3v-1.28a23.886 23.886 0 0 0 10.736-3.432h1.569z"/><path d="m47.636 29.77a1.746 1.746 0 0 0 1.285-.562q.231-.25.473-.494a1.75 1.75 0 0 0 -2.489-2.461c-.187.19-.373.383-.554.579a1.749 1.749 0 0 0 1.285 2.938z"/><path d="m59.524 49.413a1.75 1.75 0 0 0 -3.5 0 7.984 7.984 0 0 0 6.226 7.775v1.783a1.75 1.75 0 1 0 3.5 0v-1.783a7.968 7.968 0 0 0 0-15.551v-8.792a4.48 4.48 0 0 1 2.726 4.117 1.75 1.75 0 0 0 3.5 0 7.984 7.984 0 0 0 -6.226-7.775v-1.787a1.75 1.75 0 1 0 -3.5 0v1.783a7.968 7.968 0 0 0 0 15.551v8.796a4.48 4.48 0 0 1 -2.726-4.117zm8.952 0a4.48 4.48 0 0 1 -2.726 4.117v-8.23a4.482 4.482 0 0 1 2.726 4.113zm-8.952-12.451a4.48 4.48 0 0 1 2.726-4.117v8.235a4.483 4.483 0 0 1 -2.726-4.118z"/><path d="m85.573 82.813a1.749 1.749 0 0 0 -1.75 1.75v22.562a1.75 1.75 0 0 0 3.5 0v-22.562a1.749 1.749 0 0 0 -1.75-1.75z"/><path d="m42.427 82.813a1.749 1.749 0 0 0 -1.75 1.75v22.562a1.75 1.75 0 0 0 3.5 0v-22.562a1.749 1.749 0 0 0 -1.75-1.75z"/><path d="m78.5 84.25h-4.875a1.75 1.75 0 0 0 0 3.5h4.875a1.75 1.75 0 0 0 0-3.5z"/></g></g></svg>