<svg height="512" viewBox="0 0 64 64" width="512" xmlns="http://www.w3.org/2000/svg"><g id="employee"><path d="m61 9v2a2.006 2.006 0 0 1 -2 2h-1v-3l-8-2-4 2v2.19a5.985 5.985 0 0 1 -3-5.19v-4h12a6 6 0 0 1 6 6z" fill="#57565c"/><path d="m59 28-2 9h-10l-2-9 4-3v-3.81a5.961 5.961 0 0 0 6 0v3.81z" fill="#00d7df"/><path d="m58 13v3a5.985 5.985 0 0 1 -3 5.19 5.961 5.961 0 0 1 -6 0 5.985 5.985 0 0 1 -3-5.19v-6l4-2 8 2z" fill="#ffdaaa"/><path d="m42 37v16.67h-20v-16.67a8 8 0 0 1 8-8h4a8 8 0 0 1 8 8z" fill="#57565c"/><path d="m42 37v16.67h-3v-16.67a8 8 0 0 0 -8-8h3a8 8 0 0 1 8 8z" fill="#3e3d42"/><path d="m38 36v6a6 6 0 1 1 -12 0v-6l9-2z" fill="#ffdaaa"/><path d="m38 36v6a5.994 5.994 0 0 1 -6 6 5.715 5.715 0 0 1 -1.5-.2 4.8 4.8 0 0 0 .76-.24 6.009 6.009 0 0 0 3.74-5.56v-6l-2.25-1.5 2.25-.5z" fill="#ffc477"/><path d="m21 9v1l-3 3v-3l-8-2-4 2v3l-3-3v-1a6 6 0 0 1 6-6h6a6 6 0 0 1 6 6z" fill="#57565c"/><path d="m19 28-2 9h-10l-2-9 4-3v-3.81a5.961 5.961 0 0 0 6 0v3.81z" fill="#57a4ff"/><path d="m18 13v3a5.985 5.985 0 0 1 -3 5.19 5.961 5.961 0 0 1 -6 0 5.985 5.985 0 0 1 -3-5.19v-6l4-2 8 2z" fill="#ffdaaa"/><path d="m21 9v2a2.006 2.006 0 0 1 -2 2h-1v-4a6 6 0 0 0 -6-6h3a6 6 0 0 1 6 6z" fill="#3e3d42"/><path d="m15 21.19v3a5.961 5.961 0 0 1 -6 0v-3a5.961 5.961 0 0 0 6 0z" fill="#006df0"/><path d="m18 10v6a5.985 5.985 0 0 1 -3 5.19 5.857 5.857 0 0 1 -3 .81 6.164 6.164 0 0 1 -1.5-.19 6.034 6.034 0 0 0 4.5-5.81v-6l-6-1.5 1-.5z" fill="#ffc477"/><path d="m61 9v2a2.006 2.006 0 0 1 -2 2h-1v-4a6 6 0 0 0 -6-6h3a6 6 0 0 1 6 6z" fill="#3e3d42"/><path d="m55 21.19v3a5.961 5.961 0 0 1 -6 0v-3a5.961 5.961 0 0 0 6 0z" fill="#009698"/><path d="m58 10v6a5.985 5.985 0 0 1 -3 5.19 5.857 5.857 0 0 1 -3 .81 6.164 6.164 0 0 1 -1.5-.19 6.034 6.034 0 0 0 4.5-5.81v-6l-6-1.5 1-.5z" fill="#ffc477"/><path d="m45 55v6h-26v-6l9-4h8z" fill="#ff7956"/><path d="m45 55v6h-26v-2h16.22a5.78 5.78 0 0 0 5.78-5.78z" fill="#ff5023"/><path d="m34.26 47.56.74 4.44-3 3-3-3 .74-4.44a6.024 6.024 0 0 0 4.52 0z" fill="#ffdaaa"/><path d="m35 52-.29.29-.45-2.73a6.024 6.024 0 0 1 -4.52 0l-.45 2.73-.29-.29.74-4.44a6.024 6.024 0 0 0 4.52 0z" fill="#ffc477"/><path d="m13 44h-2v12a1 1 0 0 0 1 1h4v-2h-3z"/><path d="m11 40h2v2h-2z"/><path d="m51 55h-3v2h4a1 1 0 0 0 1-1v-12h-2z"/><path d="m51 40h2v2h-2z"/><path d="m49 12h2v2h-2z"/><path d="m53 12h2v2h-2z"/><path d="m55 2h-12a1 1 0 0 0 -1 1v4a6.981 6.981 0 0 0 3 5.72v3.28a7.01 7.01 0 0 0 3 5.74v2.76l-3.6 2.7a1.024 1.024 0 0 0 -.38 1.02l2 9a1.015 1.015 0 0 0 .98.78h10a1.015 1.015 0 0 0 .98-.78l2-9a1.024 1.024 0 0 0 -.38-1.02l-3.6-2.7v-2.76a7.01 7.01 0 0 0 3-5.74v-2a3.009 3.009 0 0 0 3-3v-2a7.008 7.008 0 0 0 -7-7zm2.88 26.41-1.68 7.59h-8.4l-1.68-7.59 3.48-2.61a1.014 1.014 0 0 0 .4-.8v-2.29a7.042 7.042 0 0 0 4 0v2.29a1.014 1.014 0 0 0 .4.8zm-.88-12.41a5 5 0 0 1 -10 0v-5.38l3.12-1.56 6.88 1.72zm3-5a1 1 0 0 1 -1 1v-2a1 1 0 0 0 -.76-.97l-8-2a.978.978 0 0 0 -.69.08l-4 2a.991.991 0 0 0 -.55.88 4.979 4.979 0 0 1 -1-2.99v-3h11a5 5 0 0 1 5 5z"/><path d="m15 2h-6a7.008 7.008 0 0 0 -7 7v1a1.033 1.033 0 0 0 .29.71l2.71 2.7v2.59a7.01 7.01 0 0 0 3 5.74v2.76l-3.6 2.7a1.024 1.024 0 0 0 -.38 1.02l2 9a1.015 1.015 0 0 0 .98.78h10a1.015 1.015 0 0 0 .98-.78l2-9a1.024 1.024 0 0 0 -.38-1.02l-3.6-2.7v-2.76a7.01 7.01 0 0 0 3-5.74v-2.59l2.71-2.7a1.033 1.033 0 0 0 .29-.71v-1a7.008 7.008 0 0 0 -7-7zm2.88 26.41-1.68 7.59h-8.4l-1.68-7.59 3.48-2.61a1.014 1.014 0 0 0 .4-.8v-2.29a7.042 7.042 0 0 0 4 0v2.29a1.014 1.014 0 0 0 .4.8zm-.88-12.41a5 5 0 0 1 -10 0v-5.38l3.12-1.56 6.88 1.72zm3-6.41-1 1v-.59a1 1 0 0 0 -.76-.97l-8-2a.978.978 0 0 0 -.69.08l-4 2a.977.977 0 0 0 -.55.89v.59l-1-1v-.59a5 5 0 0 1 5-5h6a5 5 0 0 1 5 5z"/><path d="m9 12h2v2h-2z"/><path d="m13 12h2v2h-2z"/><path d="m33 39h2v2h-2z"/><path d="m29 39h2v2h-2z"/><path d="m45.41 54.09-2.41-1.07v-16.02a9.014 9.014 0 0 0 -9-9h-4a9.006 9.006 0 0 0 -9 9v16.02l-2.41 1.07a.987.987 0 0 0 -.59.91v6a1 1 0 0 0 1 1h26a1 1 0 0 0 1-1v-6a.987.987 0 0 0 -.59-.91zm-22.41-17.09a6.828 6.828 0 0 1 .74-3.12 6.959 6.959 0 0 1 6.26-3.88h4a7.008 7.008 0 0 1 7 7v15.13l-4.59-2.04a.949.949 0 0 0 -.72-.03l-.32-1.93a7 7 0 0 0 3.63-6.13v-6a1 1 0 0 0 -.45-.83l-3-2a.991.991 0 0 0 -.77-.15l-9 2a1.015 1.015 0 0 0 -.78.98v6a7 7 0 0 0 3.63 6.13l-.32 1.93a.949.949 0 0 0 -.72.03l-4.59 2.04zm9 10a5 5 0 0 1 -5-5v-5.2l7.8-1.73 2.2 1.47v5.46a5 5 0 0 1 -5 5zm1.93 4.66-1.93 1.93-1.93-1.93.47-2.82a6.741 6.741 0 0 0 2.92 0zm10.07 8.34h-24v-4.35l7.78-3.46 3.51 3.52a1.008 1.008 0 0 0 1.42 0l3.51-3.52 7.78 3.46z"/><path d="m21 15h2v2h-2z"/><path d="m41 15h2v2h-2z"/><path d="m25 15h14v2h-14z"/></g></svg>