<svg id="Capa_1" enable-background="new 0 0 512.661 512.661" height="512" viewBox="0 0 512.661 512.661" width="512" xmlns="http://www.w3.org/2000/svg"><g><g><g><circle cx="76.843" cy="77.615" fill="#fec165" r="69.339"/><path d="m96.934 11.237c5.431 9.89 8.523 21.247 8.523 33.327 0 38.295-31.044 69.339-69.339 69.339-6.987 0-13.732-1.038-20.092-2.96 11.787 21.462 34.601 36.012 60.815 36.012 38.295 0 69.339-31.044 69.339-69.339.002-31.308-20.749-57.765-49.246-66.379z" fill="#fea613"/></g><g><circle cx="256.912" cy="77.615" fill="#fec165" r="69.339"/><path d="m277.003 11.237c5.431 9.89 8.523 21.247 8.523 33.327 0 38.295-31.044 69.339-69.339 69.339-6.987 0-13.732-1.038-20.092-2.96 11.787 21.462 34.601 36.012 60.815 36.012 38.295 0 69.339-31.044 69.339-69.339.002-31.308-20.749-57.765-49.246-66.379z" fill="#fea613"/></g><g><circle cx="436.073" cy="77.615" fill="#fec165" r="69.339"/><path d="m456.165 11.237c5.431 9.89 8.523 21.247 8.523 33.327 0 38.295-31.044 69.339-69.339 69.339-6.987 0-13.732-1.038-20.092-2.96 11.787 21.462 34.601 36.012 60.815 36.012 38.295 0 69.339-31.044 69.339-69.339.001-31.308-20.75-57.765-49.246-66.379z" fill="#fea613"/></g><g><g><path d="m184.244 462.99v37.813c0 1.979 1.604 3.583 3.583 3.583h15.294c1.346 0 2.578-.754 3.191-1.953l13.872-27.147z" fill="#ea5f9e"/><path d="m287.255 475.287 13.872 27.147c.612 1.199 1.845 1.953 3.191 1.953h15.294c1.979 0 3.583-1.604 3.583-3.583v-37.814z" fill="#ea5f9e"/><path d="m363.805 390.117c0 47.3-38.35 85.65-85.65 85.65h-48.9c-39.75 0-73.17-27.09-82.83-63.8l-26.6-14.72c-2.68-1.48-4.34-4.29-4.34-7.35v-27.94c0-4.65 3.77-8.41 8.41-8.41h27.89c8.84-18.7 24.25-33.68 43.25-41.97 10.48-4.57 22.05-7.11 34.22-7.11h48.9c23.65 0 45.06 9.59 60.56 25.09s25.09 36.91 25.09 60.56z" fill="#ffa9d6"/><path d="m235.015 304.467c-1.09 13.61-9.08 22.24-10.79 24.04l-30.9-12.81 1.71-4.12c10.48-4.57 22.05-7.11 34.22-7.11z" fill="#ea5f9e"/><path d="m190.772 328.502v-52.715c0-2.197 2.21-3.689 4.257-2.89 6.604 2.578 18.007 8.346 25.412 19.772 10.856 16.753 4.889 32.972 3.771 35.834" fill="#ffa9d6"/></g></g></g><path d="m435.822.776c-42.369 0-76.838 34.47-76.838 76.839s34.47 76.838 76.838 76.838c42.369 0 76.839-34.47 76.839-76.838 0-42.37-34.47-76.839-76.839-76.839zm0 138.677c-34.098 0-61.838-27.741-61.838-61.838 0-34.098 27.741-61.839 61.838-61.839 34.098 0 61.839 27.741 61.839 61.839 0 34.097-27.741 61.838-61.839 61.838zm-351.237-18.428v-3.939c9.426-2.981 16.279-11.807 16.279-22.206v-.74c0-13.248-10.778-24.025-24.025-24.025-4.977 0-9.026-4.049-9.026-9.026v-.74c0-4.569 3.717-8.286 8.286-8.286h1.48c3.689 0 6.968 2.474 7.973 6.016 1.13 3.984 5.275 6.296 9.262 5.168 3.985-1.13 6.299-5.277 5.168-9.262-2.166-7.635-8.086-13.491-15.396-15.818v-3.963c0-4.142-3.358-7.5-7.5-7.5s-7.5 3.358-7.5 7.5v3.793c-9.679 2.825-16.772 11.773-16.772 22.352v.74c0 13.248 10.778 24.026 24.026 24.026 4.977 0 9.025 4.049 9.025 9.025v.74c0 4.569-3.717 8.286-8.286 8.286h-1.48c-3.645 0-6.912-2.436-7.946-5.924-1.177-3.972-5.351-6.235-9.322-5.06-3.971 1.177-6.236 5.351-5.06 9.322 2.271 7.661 8.375 13.501 15.814 15.699v3.822c0 4.142 3.358 7.5 7.5 7.5s7.5-3.358 7.5-7.5zm172.323 7.5c4.142 0 7.5-3.358 7.5-7.5v-3.939c9.426-2.981 16.279-11.807 16.279-22.206v-.74c0-13.248-10.778-24.025-24.025-24.025-4.977 0-9.025-4.049-9.025-9.026v-.74c0-4.569 3.717-8.286 8.286-8.286h1.479c3.69 0 6.968 2.474 7.973 6.016 1.13 3.984 5.274 6.296 9.262 5.168 3.985-1.13 6.299-5.277 5.168-9.262-2.166-7.635-8.087-13.491-15.397-15.818v-3.963c0-4.142-3.358-7.5-7.5-7.5s-7.5 3.358-7.5 7.5v3.793c-9.679 2.825-16.772 11.773-16.772 22.352v.74c0 13.248 10.778 24.026 24.025 24.026 4.977 0 9.025 4.049 9.025 9.025v.74c0 4.569-3.717 8.286-8.286 8.286h-1.479c-3.645 0-6.913-2.436-7.946-5.924-1.177-3.972-5.353-6.235-9.322-5.06-3.971 1.177-6.236 5.351-5.06 9.322 2.271 7.661 8.375 13.501 15.814 15.699v3.822c.001 4.142 3.359 7.5 7.501 7.5zm-44.403 11.528c13.578 9.91 29.479 14.826 45.338 14.826 17.54 0 35.028-6.014 49.263-17.934 3.175-2.659 3.594-7.39.935-10.565s-7.39-3.595-10.565-.935c-21.809 18.264-53.114 19.289-76.128 2.492-27.542-20.102-33.595-58.864-13.493-86.406 9.738-13.342 24.088-22.093 40.408-24.642 16.323-2.547 32.656 1.411 45.998 11.149 23.885 17.433 32.108 49.474 19.554 76.188-1.762 3.749-.151 8.216 3.598 9.978 3.748 1.762 8.216.152 9.978-3.598 15.604-33.204 5.391-73.024-24.287-94.684-16.578-12.1-36.875-17.021-57.154-13.853-20.279 3.167-38.11 14.041-50.21 30.619-24.979 34.222-17.458 82.386 16.765 107.365zm172.46 179.752h-6.246c-4.142 0-7.5 3.358-7.5 7.5s3.358 7.5 7.5 7.5h6.246c7.128 0 12.927 5.799 12.927 12.927s-5.799 12.927-12.927 12.927h-18.391c-6.703-20.244-20.272-37.777-39.012-49.524-3.51-2.199-8.138-1.137-10.338 2.372-2.2 3.51-1.138 8.138 2.372 10.338 17.03 10.674 28.967 27.042 34.013 45.823.057.281.135.554.222.823 1.623 6.316 2.471 12.897 2.471 19.622 0 43.091-35.057 78.147-78.147 78.147h-48.906c-35.482 0-66.561-23.935-75.577-58.206-.521-1.981-1.831-3.663-3.623-4.655l-26.597-14.713c-.288-.159-.466-.462-.466-.792v-27.944c0-.499.406-.905.905-.905h27.893c2.9 0 5.541-1.672 6.78-4.294 5.602-11.846 14.172-22.125 24.705-29.818v1.568c0 4.142 3.358 7.5 7.5 7.5s7.5-3.358 7.5-7.5v-45.864c5.391 2.892 11.513 7.377 15.875 14.108 8.346 12.879 4.467 25.474 3.079 29.027-1.507 3.858.399 8.208 4.258 9.715.896.35 1.819.516 2.727.516 2.999 0 5.831-1.812 6.988-4.773 1.154-2.956 3.479-10.158 3.083-19.264h43.877c4.611 0 9.232.404 13.733 1.202.443.079.883.117 1.317.117 3.568 0 6.732-2.557 7.376-6.193.723-4.078-1.998-7.971-6.076-8.693-5.363-.95-10.864-1.432-16.351-1.432h-47.086c-1.097-2.757-2.514-5.563-4.337-8.377-10.244-15.808-27.034-22.292-33.777-24.346-2.275-.693-4.741-.267-6.65 1.147-1.91 1.415-3.036 3.65-3.036 6.027v37.692c-15.203 8.658-27.802 21.538-36.096 36.937h-23.283c-8.77 0-15.905 7.135-15.905 15.905v27.944c0 5.785 3.145 11.118 8.206 13.917l23.859 13.199c6.275 20.866 19.487 38.298 36.691 50.036v33.754c0 6.111 4.972 11.083 11.083 11.083h15.294c4.184 0 7.966-2.314 9.87-6.04l11.607-22.713c1.545.077 3.094.129 4.654.129h48.906c1.573 0 3.136-.04 4.69-.118l11.601 22.702c1.904 3.726 5.686 6.04 9.87 6.04h15.294c6.111 0 11.083-4.972 11.083-11.083v-33.814c24.502-16.798 40.61-44.989 40.61-76.875 0-4.893-.381-9.721-1.114-14.454h14.778c15.399 0 27.927-12.528 27.927-27.927s-12.53-27.927-27.929-27.927zm-184.245 177.08h-8.98v-21.523c5.466 2.407 11.189 4.296 17.105 5.623zm114.971 0h-8.98l-8.119-15.889c5.933-1.333 11.652-3.235 17.1-5.643v21.532zm-162.014-419.27c0-42.369-34.47-76.839-76.838-76.839-42.369 0-76.839 34.469-76.839 76.839 0 42.369 34.47 76.838 76.839 76.838s76.838-34.47 76.838-76.838zm-138.677 0c0-34.098 27.741-61.839 61.839-61.839s61.838 27.741 61.838 61.839-27.741 61.838-61.838 61.838c-34.098 0-61.839-27.741-61.839-61.838zm420.822 93.692c-4.142 0-7.5 3.358-7.5 7.5v10.502c0 12.407-10.093 22.5-22.5 22.5h-141.991v-33.002c0-4.142-3.358-7.5-7.5-7.5s-7.5 3.358-7.5 7.5v33.002h-141.992c-12.407 0-22.5-10.093-22.5-22.5v-10.502c0-4.142-3.358-7.5-7.5-7.5s-7.5 3.358-7.5 7.5v10.502c0 20.678 16.822 37.5 37.5 37.5h141.992v40.135c0 4.142 3.358 7.5 7.5 7.5s7.5-3.358 7.5-7.5v-40.135h141.992c20.678 0 37.5-16.822 37.5-37.5v-10.502c-.001-4.142-3.359-7.5-7.501-7.5zm-248.612 196.611c0 4.142 3.36 7.5 7.505 7.5s7.505-3.358 7.505-7.5-3.36-7.5-7.505-7.5-7.505 3.358-7.505 7.5zm248.612-297.803c-4.977 0-9.025-4.049-9.025-9.026v-.74c0-4.569 3.717-8.286 8.286-8.286h1.48c3.689 0 6.968 2.474 7.973 6.016 1.13 3.984 5.274 6.296 9.262 5.168 3.985-1.13 6.299-5.277 5.168-9.262-2.166-7.635-8.086-13.491-15.396-15.818v-3.963c0-4.142-3.358-7.5-7.5-7.5s-7.5 3.358-7.5 7.5v3.793c-9.679 2.825-16.772 11.773-16.772 22.352v.74c0 13.248 10.778 24.026 24.025 24.026 4.977 0 9.026 4.049 9.026 9.025v.74c0 4.569-3.717 8.286-8.286 8.286h-1.48c-3.645 0-6.913-2.436-7.946-5.924-1.178-3.971-5.35-6.234-9.323-5.059-3.971 1.177-6.236 5.351-5.059 9.323 2.271 7.661 8.376 13.5 15.815 15.698v3.822c0 4.142 3.358 7.5 7.5 7.5s7.5-3.358 7.5-7.5v-3.939c9.426-2.981 16.279-11.807 16.279-22.206v-.74c-.001-13.249-10.779-24.026-24.027-24.026z"/></g></svg>