<svg height="511pt" viewBox="0 -19 511.99791 511" width="511pt" xmlns="http://www.w3.org/2000/svg"><path d="m468.347656 96.980469-38.582031 79.570312-.011719-.011719c-10.835937-12.136718-25.164062-21.082031-41.410156-25.273437.003906 0 21.265625-55.535156 80.003906-54.285156zm0 0" fill="#f6838d"/><path d="m65.535156 316.371094v6.472656c0 46.140625 37.398438 83.542969 83.539063 83.542969h14.1875l14.40625 57.113281h43.359375s.039062-30.703125.058594-57.113281h116.921874l14.40625 57.113281h43.367188s.03125-32.550781.050781-62.085938c28.574219-10.324218 49.910157-35.777343 54.296875-66.710937l.011719.019531 51.855469-33.523437v-74.390625h-26.730469c-13.058594 0-24.414063-8.546875-28.523437-20.945313-8.867188-26.753906-30.882813-47.507812-58.394532-54.597656v-82.019531s-41.992187 25.84375-54.019531 79.371094h-59.855469c-13.445312 11.046874-30.652344 17.675781-49.417968 17.675781-18.753907 0-35.960938-6.628907-49.40625-17.675781h-26.574219c-46.136719 0-83.539063 37.402343-83.539063 83.539062zm0 0" fill="#f6838d"/><path d="m302.957031 88.398438c0 43.019531-34.875 77.898437-77.898437 77.898437-43.019532 0-77.898438-34.878906-77.898438-77.898437 0-43.023438 34.878906-77.898438 77.898438-77.898438 43.023437 0 77.898437 34.875 77.898437 77.898438zm0 0" fill="#ffc15a"/><path d="m319.882812 463.5h-49.300781l-4.785156-57.003906 54.085937-.105469zm0 0" fill="#f6838d"/><path d="m144.945312 406.386719v57.113281h-49.296874l-11.257813-87.789062c14.476563 17.695312 36.199219 29.34375 60.554687 30.5625zm0 0" fill="#f6838d"/><path d="m501.996094 216.808594h-26.730469c-8.589844 0-16.238281-5.664063-19.03125-14.089844-3.363281-10.148438-8.347656-19.453125-14.636719-27.652344l35.75-73.71875c1.484375-3.066406 1.308594-6.675781-.46875-9.582031s-4.914062-4.707031-8.316406-4.777344c-26.957031-.574219-51.03125 9.761719-69.59375 29.890625-.210938.226563-.414062.457032-.621094.683594v-48.316406c0-2.71875-1.105468-5.277344-2.992187-7.128906-.628907-.621094-1.34375-1.160157-2.132813-1.601563-3.164062-1.769531-7.035156-1.6875-10.121094.210937-2.0625 1.269532-41.917968 26.398438-56.589843 77.890626h-29.3125c10.230469-14.628907 15.761719-31.996094 15.761719-50.21875 0-48.46875-39.429688-87.898438-87.898438-87.898438 0 0 .003906 0 0 0-23.476562 0-45.550781 9.144531-62.152344 25.742188-16.601562 16.601562-25.746094 38.675781-25.746094 62.15625 0 18.222656 5.53125 35.589843 15.761719 50.21875h-3.847656c-30.929687 0-58.398437 15.09375-75.4375 38.296874-6.210937 5.957032-14.328125 9.230469-22.941406 9.230469-.074219 0-.144531 0-.21875-.003906-8.863281-.054687-17.171875-3.558594-23.398438-9.867187-4.609375-4.664063-7.121093-10.84375-7.082031-17.402344.042969-6.554688 2.636719-12.703125 7.300781-17.308594 3.324219-3.285156 7.722657-5.085938 12.390625-5.085938h.113282c4.710937.027344 9.128906 1.890626 12.4375 5.246094 2.273437 2.300782 3.515624 5.347656 3.492187 8.582032-.019531 3.234374-1.296875 6.269531-3.601563 8.542968-3.929687 3.878906-3.96875 10.210938-.089843 14.140625 3.882812 3.929688 10.210937 3.96875 14.144531.089844 6.101562-6.027344 9.492188-14.066406 9.546875-22.644531s-3.234375-16.660156-9.261719-22.765625c-7.0625-7.152344-16.488281-11.128907-26.542968-11.191407-.082032 0-.164063 0-.246094 0-9.960938 0-19.339844 3.847657-26.4375 10.851563-8.464844 8.363281-13.1718752 19.519531-13.246094 31.417969-.0742188 11.898437 4.488281 23.113281 12.847656 31.582031 9.980469 10.105469 23.300782 15.722656 37.507813 15.8125.113281.003906.230469.003906.347656.003906 2.957031 0 5.871094-.253906 8.734375-.726562-2.53125 8.476562-3.902344 17.449219-3.902344 26.738281v3.945312c0 5.523438 4.480469 10 10 10 5.523438 0 10-4.476562 10-10v-3.945312c0-40.546875 32.992188-73.539062 73.542969-73.539062h23.113281c.933594.707031 1.886719 1.386718 2.84375 2.050781.019532.015625.039063.027343.058594.039062 11.578125 8.039063 24.859375 13.125 38.917969 14.878907 7.3125.933593 14.746093.933593 22.0625.003906 14.066406-1.746094 27.359375-6.832032 38.945312-14.871094.039063-.027344.074219-.050781.113281-.078125.941407-.65625 1.878907-1.324219 2.796876-2.019531 0 0 .003906 0 .007812-.003906h44.453125c-.796875 6.09375-1.242187 12.472656-1.242187 19.15625 0 5.523437 4.476562 10 10 10 5.519531 0 10-4.476563 10-10 0-9.210938.976562-18.128907 2.878906-26.742188.019531-.074219.042968-.144531.0625-.222656 6.394531-28.464844 22.207031-48.601563 34.253906-60.421875v87.386719c0 5.523437 4.480469 10 10 10 5.523438 0 10-4.476563 10-10v-12.324219c18.148438 8.484375 32.53125 24.316406 38.90625 43.5625 5.515625 16.625 20.789062 27.796875 38.019531 27.796875h16.726563v58.949218l-46.714844 30.199219c-2.683594 1.488281-4.601562 4.171875-5.050781 7.339844-3.117188 21.976563-15.878907 40.992187-34.398438 52.289063-.007812-9.609376-.027343-16.300782-.0625-17.0625-.269531-5.515626-4.949219-9.765626-10.476562-9.503907-5.484375.265625-9.726563 4.90625-9.507813 10.386719.039063 1.527344.050782 14.710938.046875 32.003906-.011719 19.433594-.03125 40.175782-.039062 52.085938v.003906h-25.589844l-4.359375-17.277344-8.140625-32.28125c-.003906-.019531-.011719-.039062-.015625-.054687l-9.417969-37.324219c-1.351562-5.359375-6.792969-8.601562-12.144531-7.25-5.351562 1.347656-8.597656 6.785156-7.25 12.140625l6.292969 24.933594h-94.085938c0-15.121094-.015625-26.839844-.066406-27.863281-.265625-5.515626-4.941406-9.765626-10.472656-9.503907-5.484375.265625-9.726563 4.910157-9.507813 10.386719.054688 2.058594.054688 25.339844.035156 51.296875-.011718 12.554687-.023437 24.683594-.035156 32.800781h-25.578125l-12.5-49.5625c-.011719-.042968-.023437-.078125-.035156-.121094l-9.402344-37.257812c-1.351562-5.359375-6.792969-8.601562-12.144531-7.25-5.351562 1.347656-8.597656 6.785156-7.25 12.140625l6.292969 24.933594h-1.34375c-1.195313 0-2.378907-.035157-3.558594-.089844-.023437 0-.046875-.007813-.070313-.007813-10.335937-.515624-20.339843-3.214843-29.40625-7.769531-4.882812-2.46875-9.519531-5.476562-13.738281-8.964843-16.335937-13.5-26.765625-33.90625-26.765625-56.707032v-6.472656c0-5.523438-4.480468-10-10-10-5.523437 0-10 4.476562-10 10v6.472656c0 21.347656 7.191406 41.046875 19.277344 56.804688l10.914062 85.125c.640626 4.988281 4.890626 8.726562 9.921876 8.726562h49.296874c5.523438 0 10-4.476562 10-10v-47.117187h.519532l12.503906 49.5625c.210938.832031.523438 1.617187.921875 2.347656 1.71875 3.152344 5.054687 5.207031 8.777344 5.207031h43.359375c1.378906 0 2.691406-.277344 3.886718-.785156 3.589844-1.515625 6.109376-5.0625 6.117188-9.203125.011719-9.523437.035156-28.566406.046875-47.128906h25.515625l4.023438 47.953125c.433593 5.179687 4.765624 9.164062 9.964843 9.164062h49.300781c5.519532 0 10-4.476562 10-10v-47.117187h.332032l5.746094 22.769531 6.757812 26.792969c1.121094 4.441406 5.113281 7.554687 9.695312 7.554687h43.371094c5.519532 0 9.992188-4.472656 10-9.992187 0 0 0-3.746094.007813-9.839844.015625-12.238281.03125-29.628906.039062-45.515625 27.738281-12.457031 47.652344-37.515625 53.425781-67.414062l48.167969-31.140626c2.851563-1.839843 4.570313-5.003906 4.570313-8.398437v-74.390625c0-5.527344-4.476563-10.003906-10-10.003906zm-324.945313-176.421875c12.824219-12.824219 29.875-19.886719 48.011719-19.886719 37.4375 0 67.894531 30.457031 67.894531 67.898438 0 18.136718-7.0625 35.1875-19.886719 48.011718-1.5625 1.5625-3.195312 3.039063-4.882812 4.433594-.019531.015625-.042969.027344-.0625.046875-9.796875 8.046875-21.695312 13.164063-34.203125 14.816406-5.890625.761719-11.855469.761719-17.746094-.003906-12.496093-1.652344-24.390625-6.769531-34.183593-14.8125-.019532-.019531-.046876-.035156-.070313-.054687-1.683594-1.390626-3.3125-2.863282-4.875-4.429688-12.824219-12.824219-19.886719-29.875-19.886719-48.011719s7.066406-35.183593 19.890625-48.007812zm225.402344 105.011719c7.0625-11.953126 22.394531-31.542969 49.238281-36.992188l-24.90625 51.367188c-7.265625-5.949219-15.449218-10.808594-24.332031-14.375zm-92.570313 308.101562h-30.105468l-3.105469-37.027344 33.210937-.066406zm-205.4375 0-6.730468-52.503906c.199218.132812.402344.257812.605468.386718.339844.222657.683594.4375 1.027344.652344.242188.152344.480469.304688.722656.453125 10.449219 6.453125 22.25 10.910157 34.875 12.832031v38.183594h-30.5zm0 0"/><path d="m215.0625 130.175781v2.082031c0 5.519532 4.476562 10 9.996094 10h.003906c5.519531 0 10-4.476562 10-10v-2.078124c9.1875-1.664063 16.183594-9.703126 16.183594-19.367188v-13.085938c0-10.859374-8.832032-19.695312-19.691406-19.695312h-12.679688v-11.746094h12.378906c.160156 5.382813 4.574219 9.695313 9.996094 9.695313 5.519531 0 10-4.476563 10-10 0-9.660157-7-17.703125-16.1875-19.363281v-2.078126c0-5.523437-4.480469-10-10-10-5.523438 0-10 4.476563-10 10v2.078126c-9.191406 1.660156-16.191406 9.703124-16.191406 19.363281v12.355469c0 10.859374 8.835937 19.695312 19.695312 19.695312h12.679688v12.476562h-12.375v-.894531c0-5.519531-4.476563-10-10-10-5.519532 0-10 4.480469-10 10v1.199219c.003906 9.660156 7 17.703125 16.191406 19.363281zm0 0"/><path d="m390.367188 228.019531c4.308593 6.589844 14.558593 5.46875 17.550781-1.71875.25-.609375.4375-1.242187.570312-1.871093.128907-.648438.1875-1.308594.1875-1.960938 0-6.664062-6.703125-11.554688-13.054687-9.507812-6.21875 2-8.882813 9.617187-5.253906 15.058593zm0 0"/><path d="m275.316406 203.3125c5.523438 0 10-4.476562 10-10s-4.476562-10-10-10h-99.359375c-5.519531 0-10 4.476562-10 10s4.480469 10 10 10zm0 0"/><path d="m56.296875 279.28125c1.578125 3.851562 5.570313 6.382812 9.730469 6.164062 4.121094-.214843 7.753906-3.003906 9.019531-6.929687 1.28125-3.976563-.113281-8.4375-3.421875-10.988281-3.355469-2.585938-8.125-2.734375-11.648438-.386719-3.914062 2.609375-5.488281 7.800781-3.679687 12.140625zm0 0"/></svg>