<svg id="Capa_1" enable-background="new 0 0 512 512" height="512" viewBox="0 0 512 512" width="512" xmlns="http://www.w3.org/2000/svg"><g><g><g><path d="m274.363 53.574h47.814c9.617 0 18.84 1.67 27.415 4.711v-11.047c0-21.947-17.791-39.738-39.738-39.738h-23.168c-21.947 0-39.738 17.791-39.738 39.738v11.048c8.574-3.041 17.798-4.712 27.415-4.712z" fill="#883f2e"/></g><g><path d="m274.363 53.574h13.993v-6.336c0-18.807 13.069-34.551 30.618-38.674-2.93-.688-5.98-1.064-9.12-1.064h-23.168c-21.947 0-39.738 17.791-39.738 39.738v11.048c8.574-3.041 17.798-4.712 27.415-4.712z" fill="#6d3326"/></g><g><path d="m206.271 178.005h14.059v-1.092c0-6.031 4.889-10.919 10.92-10.919h32.678c18.192 0 33.927-10.484 41.513-25.736 1.856-3.731 5.631-6.118 9.798-6.118h50.049c6.031 0 10.92 4.889 10.92 10.92v32.947h14.059c5.431 0 10.347 2.191 13.921 5.734v-48.152c0-45.294-36.718-82.013-82.013-82.013h-47.814c-45.294 0-82.013 36.718-82.013 82.013v48.153c3.576-3.545 8.493-5.737 13.923-5.737z" fill="#a44f3e"/></g><g><path d="m206.271 178.005h14.059v-1.092c0-6.031 4.889-10.919 10.92-10.919h2.91v-30.406c0-45.294 36.719-82.013 82.013-82.013h-41.81c-45.294 0-82.013 36.718-82.013 82.013v48.152c3.574-3.543 8.491-5.735 13.921-5.735z" fill="#883f2e"/></g><path d="m372.275 303.753h-25.47v40.035c0 3.334-3.058 5.466-5.948 4.909v15.536c0 1.152-.397 2.268-1.125 3.16l-37.586 46.09c-2.001 2.453-5.749 2.453-7.75 0l-37.586-46.09c-.728-.892-1.125-2.008-1.125-3.16v-15.536c-2.891.557-5.949-1.576-5.949-4.909v-40.035h-25.47c-27.146 0-50.739 15.189-62.759 37.53 8.609 3.037 14.797 11.25 14.797 20.885v7.051h13.423c2.206 0 4 1.794 4 4v9.781h30.495c2.206 0 4 1.794 4 4v117.5h210.278c2.761 0 5-2.239 5-5v-124.522c0-39.336-31.888-71.225-71.225-71.225z" fill="#554e6f"/><path d="m224.264 303.753c-26.781 0-50.098 14.788-62.262 36.637 8.921 3.214 15.3 11.75 15.3 21.777v6.05h12.423c.202 0 .393.036.589.059 3.021-32.372 27.711-58.444 59.421-63.589v-.936h-25.471z" fill="#433f5c"/><g><path d="m338.61 347.635-37.145-30.859c-1.852-1.539-4.538-1.539-6.39 0l-37.145 30.859c-.694.576-1.464.913-2.247 1.063v15.536c0 1.152.397 2.268 1.125 3.16l37.586 46.09c2.001 2.453 5.749 2.453 7.75 0l37.586-46.09c.728-.892 1.125-2.008 1.125-3.16v-15.536c-.781-.151-1.552-.487-2.245-1.063z" fill="#f3f0ff"/></g><g><path d="m276 353.91v-21.288l-18.07 15.012c-.694.576-1.464.913-2.247 1.063v15.536c0 1.152.397 2.268 1.125 3.16l37.586 46.09c2.001 2.453 5.749 2.453 7.75 0l10.493-12.867-35.513-43.547c-.727-.892-1.124-2.008-1.124-3.159z" fill="#cbc4e5"/></g><g><path d="m344.753 282.077-2.033-1.484c-8.091 4.029-17.207 6.307-26.859 6.307h-35.183c-9.652 0-18.768-2.278-26.859-6.307l-2.033 1.484c-1.289.941-2.052 2.442-2.052 4.038v57.674c0 4.236 4.937 6.553 8.195 3.846l37.145-30.859c1.852-1.539 4.538-1.539 6.39 0l37.145 30.859c3.258 2.707 8.195.39 8.195-3.846v-57.674c.001-1.596-.762-3.097-2.051-4.038z" fill="#f3f0ff"/></g><path d="m253.819 280.593-2.033 1.484c-1.289.941-2.052 2.442-2.052 4.038v57.674c0 4.236 4.937 6.553 8.195 3.846l12.071-10.028v-45.29c0-1.596.762-3.097 2.052-4.038l2.336-1.706c-7.327-.759-14.259-2.838-20.569-5.98z" fill="#e2defb"/><g fill="#ffbd86"><path d="m220.331 226.552v-48.547h-14.059c-10.924 0-19.779 8.855-19.779 19.779v13.175c0 10.924 8.855 19.779 19.779 19.779h14.22c-.096-1.385-.161-2.777-.161-4.186z"/><path d="m390.268 178.005h-14.059v48.547c0 1.408-.066 2.801-.161 4.185h14.22c10.923 0 19.779-8.855 19.779-19.779v-13.175c0-10.923-8.855-19.778-19.779-19.778z"/></g><g><path d="m315.862 286.9h-35.183c-2.911 0-5.771-.218-8.572-.617l21.879 36.379c1.943 3.231 6.626 3.231 8.57 0l21.879-36.379c-2.803.399-5.662.617-8.573.617z" fill="#f6a96c"/></g><g><path d="m315.241 134.139c-4.167 0-7.943 2.387-9.799 6.118-7.587 15.252-23.322 25.736-41.513 25.736h-32.679c-6.031 0-10.92 4.889-10.92 10.92v49.639c0 33.329 27.019 60.348 60.348 60.348h35.183c33.329 0 60.348-27.018 60.348-60.348v-81.494c0-6.031-4.889-10.92-10.92-10.92h-50.048z" fill="#ffbd86"/></g><g><g><path d="m252 226.552v-49.639c0-6.031 4.889-10.919 10.92-10.919h-31.67c-6.031 0-10.92 4.889-10.92 10.919v49.639c0 33.329 27.019 60.348 60.348 60.348h31.669c-33.328 0-60.347-27.019-60.347-60.348z" fill="#f6a96c"/></g></g><g><g><path d="m410.526 459.324h-66.069c-1.657 0-3-1.343-3-3v-36.326c0-1.657 1.343-3 3-3h66.069c1.657 0 3 1.343 3 3v36.326c0 1.657-1.343 3-3 3z" fill="#fff"/></g></g><g><path d="m372.931 456.324v-36.326c0-1.657 1.343-3 3-3h-31.474c-1.657 0-3 1.343-3 3v36.326c0 1.657 1.343 3 3 3h31.474c-1.657 0-3-1.343-3-3z" fill="#f3f0ff"/></g></g><path d="m224.22 382h-29.495v6.219c0 2.761-2.239 5-5 5h-71.132c-2.761 0-5-2.239-5-5v-6.219h-29.495c-2.761 0-5 2.239-5 5v117.5h150.122v-117.5c0-2.761-2.238-5-5-5z" fill="#ffee9a"/><path d="m118.593 393.219c-2.761 0-5-2.239-5-5v-6.219h-29.495c-2.761 0-5 2.239-5 5v58.168h24.599c2.777 0 5.028 2.251 5.028 5.028v54.304h12.275v-111.281z" fill="#fcdd66"/><g><path d="m177.302 368.219v-6.05c0-12.781-10.362-23.143-23.143-23.143-12.782 0-23.143 10.362-23.143 23.143v6.05z" fill="#f3f0ff"/></g><g><path d="m152 368.219v-6.05c0-9.003 5.145-16.8 12.651-20.626-3.15-1.606-6.714-2.517-10.492-2.517-12.782 0-23.143 10.362-23.143 23.143v6.05z" fill="#e2defb"/></g><g><path d="m189.725 393.219h-71.132c-2.761 0-5-2.239-5-5v-15c0-2.761 2.239-5 5-5h71.132c2.761 0 5 2.239 5 5v15c0 2.761-2.238 5-5 5z" fill="#cbc4e5"/></g><g><path d="m144.868 388.219v-15c0-2.761 2.239-5 5-5h-31.275c-2.761 0-5 2.239-5 5v15c0 2.761 2.239 5 5 5h31.275c-2.762 0-5-2.239-5-5z" fill="#b5adcf"/></g><g><path d="m108.725 504.5h-32.523c-4.254 0-7.702-3.448-7.702-7.702v-43.928c0-4.254 3.448-7.702 7.702-7.702h27.495c2.777 0 5.028 2.251 5.028 5.028z" fill="#ffbd86"/></g><g><path d="m89 496.798v-43.928c0-4.254 3.448-7.702 7.702-7.702h-20.5c-4.254 0-7.702 3.448-7.702 7.702v43.928c0 4.254 3.448 7.702 7.702 7.702h20.5c-4.254 0-7.702-3.448-7.702-7.702z" fill="#f6a96c"/></g><g><path d="m263.878 201.307v-13.766c0-4.142-3.357-7.5-7.5-7.5s-7.5 3.358-7.5 7.5v13.766c0 4.142 3.357 7.5 7.5 7.5s7.5-3.358 7.5-7.5z"/><path d="m340.162 180.041c-4.143 0-7.5 3.358-7.5 7.5v13.766c0 4.142 3.357 7.5 7.5 7.5s7.5-3.358 7.5-7.5v-13.766c0-4.143-3.357-7.5-7.5-7.5z"/><path d="m322.45 232.759c-6.466 6.465-15.053 10.025-24.181 10.025-9.127 0-17.714-3.561-24.179-10.025-2.929-2.929-7.678-2.929-10.606 0-2.93 2.929-2.93 7.677-.001 10.606 9.298 9.298 21.652 14.419 34.786 14.419s25.488-5.121 34.787-14.419c2.929-2.929 2.929-7.677 0-10.606s-7.678-2.929-10.606 0z"/><path d="m292.387 218.264h11.767c4.143 0 7.5-3.358 7.5-7.5s-3.357-7.5-7.5-7.5h-4.267v-12.111c0-4.142-3.357-7.5-7.5-7.5s-7.5 3.358-7.5 7.5v19.611c0 4.142 3.357 7.5 7.5 7.5z"/><circle cx="298.27" cy="349.5" r="7.5"/><circle cx="298.27" cy="381.5" r="7.5"/><path d="m333.957 419.998v36.326c0 5.79 4.71 10.5 10.5 10.5h66.068c5.79 0 10.5-4.71 10.5-10.5v-36.326c0-5.79-4.71-10.5-10.5-10.5h-66.068c-5.79 0-10.5 4.71-10.5 10.5zm15 4.5h57.068v27.326h-57.068z"/><path d="m389.491 401.5c4.143 0 7.5-3.358 7.5-7.5s-3.357-7.5-7.5-7.5h-24c-4.143 0-7.5 3.358-7.5 7.5s3.357 7.5 7.5 7.5z"/><path d="m443.5 396.5c4.143 0 7.5-3.358 7.5-7.5v-14.021c0-43.409-35.315-78.725-78.725-78.725h-16.421v-11.688c0-1.016-.137-2.015-.379-2.983 14.076-10.161 24.117-25.575 27.219-43.346h7.575c15.041 0 27.278-12.237 27.278-27.279v-13.174c0-6.361-2.194-12.215-5.857-16.86v-45.338c0-13.583-2.968-26.634-8.819-38.787-1.798-3.732-6.282-5.298-10.012-3.503-3.732 1.797-5.301 6.279-3.504 10.011 4.867 10.107 7.335 20.967 7.335 32.279v35.688c-2.061-.499-4.209-.771-6.421-.771h-6.56v-25.446c0-10.157-8.263-18.419-18.42-18.419h-50.049c-7.033 0-13.36 3.938-16.513 10.278-6.62 13.309-19.954 21.577-34.799 21.577h-32.678c-7.9 0-14.635 5.009-17.246 12.011h-7.733c-2.212 0-4.361.271-6.422.771v-35.688c0-41.086 33.427-74.513 74.514-74.513h47.813c17.353 0 34.252 6.1 47.583 17.176 3.188 2.647 7.914 2.211 10.562-.976 2.647-3.186 2.21-7.915-.976-10.562-6.749-5.607-14.264-10.138-22.254-13.522v-5.953c.001-26.046-21.191-47.237-47.237-47.237h-23.168c-26.047 0-47.237 21.191-47.237 47.238v5.928c-32.06 13.632-54.599 45.444-54.599 82.421v45.338c-3.663 4.644-5.857 10.499-5.857 16.859v13.174c0 15.042 12.237 27.279 27.279 27.279h7.575c3.302 18.92 14.47 35.168 29.999 45.249-.032.358-.061.717-.061 1.079v11.688h-19.52c-27.485 0-51.706 14.171-65.789 35.579-1.411-.2-2.851-.308-4.316-.308-16.41 0-29.847 12.968-30.607 29.194h-4.96c-6.893 0-12.5 5.607-12.5 12.5v1.281h-21.995c-6.893 0-12.5 5.607-12.5 12.5v51.385c-6.138 1.957-10.598 7.709-10.598 14.486v43.928c0 8.382 6.819 15.202 15.202 15.202h362.298c6.893 0 12.5-5.607 12.5-12.5v-75.5c0-4.142-3.357-7.5-7.5-7.5s-7.5 3.358-7.5 7.5v73h-199.279v-32c0-4.142-3.357-7.5-7.5-7.5s-7.5 3.358-7.5 7.5v32h-105.495v-46.804c0-6.908-5.62-12.528-12.528-12.528h-17.1v-48.168h19.561c.644 6.293 5.974 11.219 12.435 11.219h71.133c6.46 0 11.791-4.926 12.435-11.219h19.561v40.5c0 4.142 3.357 7.5 7.5 7.5s7.5-3.358 7.5-7.5v-43c0-6.893-5.607-12.5-12.5-12.5h-21.995v-1.281c0-6.893-5.607-12.5-12.5-12.5h-4.961c-.439-9.379-5.118-17.662-12.153-22.989 11.584-16.023 30.414-26.477 51.653-26.477h19.52v30.986c0 3.765 1.632 7.194 4.399 9.526v12.469c0 2.87.999 5.676 2.813 7.899l37.586 46.091c2.385 2.923 5.915 4.6 9.688 4.6s7.303-1.677 9.688-4.601l37.587-46.09c1.813-2.224 2.813-5.03 2.813-7.9v-10.554c.102-.045.206-.077.307-.124 4.436-2.081 7.19-6.417 7.19-11.316v-30.986h16.421c35.138 0 63.725 28.587 63.725 63.725v14.022c-.004 4.142 3.353 7.5 7.496 7.5zm-59.791-210.995h6.56c6.771 0 12.278 5.508 12.278 12.279v13.174c0 6.771-5.508 12.279-12.278 12.279h-6.56zm-129.261-138.267c0-17.776 14.462-32.238 32.238-32.238h23.168c17.776 0 32.238 14.462 32.238 32.238v1.099c-6.498-1.486-13.177-2.263-19.915-2.263h-47.813c-6.843 0-13.508.775-19.915 2.236v-1.072zm-41.617 175.999h-6.56c-6.771 0-12.279-5.508-12.279-12.279v-13.174c0-6.771 5.509-12.279 12.279-12.279h6.56zm-111.605 229.431v44.332h-25.024c-.111 0-.202-.091-.202-.202v-43.928c0-.111.091-.202.202-.202zm52.933-106.143c8.136 0 14.834 6.246 15.569 14.194h-31.139c.735-7.948 7.433-14.194 15.57-14.194zm33.067 29.194v10h-66.133v-10zm146.13-12.375-35.087 43.024-35.086-43.024v-10.688c.372-.248.738-.511 1.088-.802l26.343-21.886c2.15 1.673 4.811 2.617 7.654 2.617h.001c3.534 0 6.784-1.462 9.118-3.976l25.969 21.575zm-74.571-26.433v-46.157c2.813.962 5.703 1.753 8.667 2.342l14.683 24.415zm26.954-42.511h25.06l-12.53 20.835zm55.115 42.512-25.417-21.117 13.651-22.699c4.065-.807 7.995-1.987 11.766-3.487zm-24.993-57.512h-35.183c-29.141 0-52.848-23.708-52.848-52.848v-49.639c0-1.885 1.534-3.419 3.419-3.419h32.679c20.576 0 39.056-11.456 48.229-29.897.601-1.208 1.781-1.958 3.082-1.958h50.049c1.886 0 3.42 1.534 3.42 3.419v81.494c.001 29.14-23.706 52.848-52.847 52.848z"/></g></g></svg>