<svg id="Capa_1" enable-background="new 0 0 511.042 511.042" height="512" viewBox="0 0 511.042 511.042" width="512" xmlns="http://www.w3.org/2000/svg"><g><path d="m326.818 289.221h-142.595c-14.681 0-27.015-11.036-28.641-25.626l-9.638-86.484c-3.021-27.114 16.205-51.652 43.25-55.236 44.217-5.86 88.434-5.86 132.651 0 27.045 3.584 46.272 28.122 43.25 55.236l-9.638 86.484c-1.624 14.59-13.959 25.626-28.639 25.626z" fill="#e7a52e"/><path d="m321.846 121.875c-25.999-3.445-51.999-4.848-77.998-4.242 18.218.425 36.435 1.828 54.653 4.242 27.045 3.584 46.272 28.122 43.25 55.236l-9.638 86.484c-1.626 14.59-13.96 25.626-28.641 25.626h23.345c14.681 0 27.015-11.036 28.641-25.626l9.638-86.484c3.022-27.114-16.205-51.652-43.25-55.236z" fill="#e28424"/><path d="m327.907 344.392-21.606-10.055h-101.561l-21.606 10.055c-15.063 7.01-24.696 22.118-24.696 38.732v113.113c0 4.034 3.27 7.304 7.304 7.304h179.557c4.034 0 7.304-3.27 7.304-7.304v-113.113c0-16.614-9.633-31.722-24.696-38.732z" fill="#b3e59f"/><path d="m327.907 344.392-21.606-10.055c-19.412-9.346-29.057-7.587-24.783 10l21.606 10.055c15.063 7.01 24.696 22.118 24.696 38.732v107.113c0 1.19-.291 2.311-.796 3.304h18.275c4.034 0 7.304-3.27 7.304-7.304v-113.113c0-16.614-9.633-31.722-24.696-38.732z" fill="#95d6a4"/><path d="m234.176 350.332v17.942c0 11.789 9.556 21.345 21.345 21.345 11.788 0 21.345-9.557 21.345-21.345v-17.942c-6.782-14.409-35.905-15.431-42.69 0z" fill="#e2a770"/><path d="m180.663 205.485c-1.46.094-2.591 1.318-2.591 2.782v36.279 29.987 1.354c0 42.774 34.675 77.448 77.448 77.448 42.774 0 77.448-34.675 77.448-77.448v-67.555c0-1.51-1.206-2.742-2.715-2.787-40.448-1.199-76.705-6.439-101.262-22.962-1.246-.839-2.929-.511-3.802.712-10.267 14.38-25.38 20.952-44.526 22.19z" fill="#ffddce"/><path d="m330.254 205.545c-6.191-.184-12.546-.478-18.63-.89v.004c-32.867-2.227-61.914-8.136-82.633-22.077-1.246-.839-2.931-.507-3.804.716-10.268 14.378-25.38 20.95-44.524 22.187-1.46.094-2.591 1.318-2.591 2.781v15.109c0-1.463 1.131-2.687 2.591-2.781 19.135-1.237 36.239-4.806 46.509-19.166.869-1.215 2.581-1.57 3.82-.736 18.335 12.337 42.079 16.711 69.769 18.635 6.111.425 10.863 5.492 10.863 11.618v44.941c0 39.151-29.056 71.497-66.776 76.699 3.491.481 7.05.75 10.673.75 42.774 0 77.448-34.675 77.448-77.448 0-23.728 0-55.261 0-67.555 0-1.495-1.207-2.743-2.715-2.787z" fill="#ffcbbe"/><path d="m486.395 65.51-53.628-57.355c-.816-.873-2.202-.873-3.018 0l-53.628 57.355c-1.234 1.32-.298 3.477 1.509 3.477h23.176c2.33 0 4.218 1.889 4.218 4.218v84.312c0 2.541 2.06 4.601 4.601 4.601h43.267c2.541 0 4.601-2.06 4.601-4.601v-84.312c0-2.33 1.889-4.218 4.218-4.218h23.176c1.807-.001 2.743-2.157 1.508-3.477z" fill="#b3e59f"/><path d="m486.395 65.51-53.628-57.355c-.816-.873-2.202-.873-3.018 0l-9.578 10.244 44.05 47.111c1.234 1.32.298 3.477-1.509 3.477h22.175c1.807-.001 2.743-2.157 1.508-3.477z" fill="#95d6a4"/><path d="m435.317 73.205v84.312c0 2.541-2.06 4.601-4.601 4.601h22.175c2.541 0 4.601-2.06 4.601-4.601v-84.312c0-2.33 1.889-4.218 4.218-4.218h-22.175c-2.329-.001-4.218 1.888-4.218 4.218z" fill="#95d6a4"/><path d="m134.921 65.51-53.629-57.355c-.817-.873-2.202-.873-3.018 0l-53.628 57.355c-1.234 1.32-.298 3.477 1.509 3.477h23.176c2.33 0 4.218 1.889 4.218 4.218v84.312c0 2.541 2.06 4.601 4.601 4.601h43.267c2.541 0 4.601-2.06 4.601-4.601v-84.312c0-2.33 1.889-4.218 4.218-4.218h23.176c1.807-.001 2.743-2.157 1.509-3.477z" fill="#b3e59f"/><path d="m134.921 65.51-53.629-57.355c-.816-.873-2.202-.873-3.018 0l-9.578 10.244 44.05 47.111c1.234 1.32.298 3.477-1.509 3.477h22.175c1.807-.001 2.743-2.157 1.509-3.477z" fill="#95d6a4"/><path d="m83.842 73.205v84.312c0 2.541-2.06 4.601-4.601 4.601h22.175c2.541 0 4.601-2.06 4.601-4.601v-84.312c0-2.33 1.889-4.218 4.218-4.218h-22.174c-2.33-.001-4.219 1.888-4.219 4.218z" fill="#95d6a4"/><g><path d="m322.831 114.44c-21.264-2.818-42.671-4.278-64.085-4.413l.447-.609c2.452-3.338 1.735-8.032-1.603-10.485s-8.032-1.736-10.485 1.602l-4.186 5.696-6.762-6.615c-2.961-2.897-7.709-2.844-10.606.116-2.896 2.961-2.845 7.709.116 10.606l.531.519c-12.694.727-25.367 1.91-37.989 3.583-31.103 4.122-53.195 32.305-49.719 63.501l9.638 86.484c1.573 14.115 11.399 25.982 24.601 30.415 3.214 14.043 9.909 26.767 19.139 37.214l-11.898 5.538c-17.637 8.207-29.032 26.079-29.032 45.531v113.114c0 8.163 6.641 14.804 14.804 14.804h17.598c4.143 0 7.5-3.357 7.5-7.5s-3.357-7.5-7.5-7.5h-17.401v-112.917c0-13.642 7.992-26.176 20.361-31.932l17.371-8.085c6.908 5.341 14.648 9.652 23.005 12.678v12.488c0 15.905 12.939 28.845 28.845 28.845s28.846-12.939 28.846-28.845v-12.489c8.356-3.026 16.096-7.337 23.004-12.678l17.373 8.085c12.368 5.756 20.36 18.29 20.36 31.933v112.917h-131.777c-4.143 0-7.5 3.357-7.5 7.5s3.357 7.5 7.5 7.5h131.972c8.163 0 14.805-6.641 14.805-14.804v-113.112c0-19.453-11.396-37.325-29.031-45.532l-11.9-5.538c9.23-10.447 15.925-23.171 19.139-37.214 13.203-4.432 23.028-16.3 24.602-30.414l4.015-36.027c.459-4.117-2.507-7.826-6.623-8.285-4.137-.455-7.826 2.507-8.285 6.624l-4.015 36.027c-.62 5.565-3.435 10.524-7.557 13.976.003-.286.022-.568.022-.855v-67.555c0-5.602-4.391-10.119-9.994-10.283-46.434-1.376-77.351-8.268-97.297-21.688-4.638-3.121-10.83-1.992-14.092 2.576-8.452 11.837-20.815 17.896-38.907 19.065-5.388.348-9.607 4.857-9.607 10.266v67.621c0 .286.019.568.022.854-4.122-3.453-6.937-8.412-7.557-13.977l-9.638-86.484c-2.549-22.874 13.951-43.945 36.781-46.97 43.355-5.746 87.324-5.746 130.68 0 22.831 3.025 39.331 24.096 36.782 46.97l-2.281 20.471c-.459 4.117 2.507 7.826 6.623 8.285 4.133.456 7.826-2.507 8.285-6.624l2.281-20.471c3.473-31.182-18.604-59.38-49.721-63.503zm-53.465 253.834c0 7.634-6.211 13.845-13.846 13.845-7.634 0-13.845-6.211-13.845-13.845v-8.585c4.508.742 9.129 1.146 13.845 1.146s9.337-.404 13.846-1.146zm-83.794-155.687c18.632-2.025 32.767-9.055 42.988-21.381 21.768 13.222 52.057 19.985 96.909 21.682v62.998c0 38.57-31.379 69.949-69.949 69.949-38.569 0-69.948-31.379-69.948-69.948z"/><path d="m226.738 262.85c4.143 0 7.5-3.357 7.5-7.5v-.88c0-4.142-3.357-7.5-7.5-7.5s-7.5 3.358-7.5 7.5v.88c0 4.143 3.357 7.5 7.5 7.5z"/><path d="m284.303 262.85c4.143 0 7.5-3.357 7.5-7.5v-.88c0-4.142-3.357-7.5-7.5-7.5s-7.5 3.358-7.5 7.5v.88c0 4.143 3.358 7.5 7.5 7.5z"/><path d="m237.555 303.062c5.877 3.516 11.92 5.272 17.965 5.272 6.044 0 12.09-1.758 17.965-5.272 3.556-2.127 4.713-6.731 2.587-10.286-2.128-3.557-6.735-4.71-10.286-2.587-7.004 4.188-13.525 4.19-20.529 0-3.553-2.125-8.159-.968-10.287 2.586-2.127 3.555-.969 8.16 2.585 10.287z"/><path d="m319.168 450.489c4.143 0 7.5-3.357 7.5-7.5s-3.357-7.5-7.5-7.5h-34.864c-4.143 0-7.5 3.357-7.5 7.5s3.357 7.5 7.5 7.5z"/><path d="m491.874 60.387-53.63-57.356c-1.803-1.927-4.349-3.031-6.986-3.031h-.003c-2.638.001-5.184 1.107-6.984 3.033l-53.627 57.354c-2.604 2.785-3.307 6.844-1.789 10.342s4.962 5.758 8.775 5.758h19.895v81.03c0 6.672 5.429 12.101 12.101 12.101h43.267c6.672 0 12.101-5.428 12.101-12.101v-81.03h19.895c3.812 0 7.257-2.26 8.775-5.758 1.515-3.498.813-7.557-1.79-10.342zm-30.163 1.099c-6.462 0-11.719 5.257-11.719 11.719v81.412h-37.468v-81.412c0-6.462-5.257-11.719-11.719-11.719h-10.654l41.106-43.964 41.107 43.964z"/><path d="m311.929 89.642h5.655v5.655c0 4.142 3.357 7.5 7.5 7.5s7.5-3.358 7.5-7.5v-5.655h5.655c4.143 0 7.5-3.358 7.5-7.5s-3.357-7.5-7.5-7.5h-5.655v-5.655c0-4.142-3.357-7.5-7.5-7.5s-7.5 3.358-7.5 7.5v5.655h-5.655c-4.143 0-7.5 3.358-7.5 7.5s3.358 7.5 7.5 7.5z"/><path d="m170.976 58.898h5.655v5.655c0 4.142 3.357 7.5 7.5 7.5s7.5-3.358 7.5-7.5v-5.655h5.655c4.143 0 7.5-3.358 7.5-7.5s-3.357-7.5-7.5-7.5h-5.655v-5.655c0-4.142-3.357-7.5-7.5-7.5s-7.5 3.358-7.5 7.5v5.655h-5.655c-4.143 0-7.5 3.358-7.5 7.5s3.358 7.5 7.5 7.5z"/><path d="m142.187 70.729c1.518-3.498.815-7.557-1.788-10.341l-53.63-57.357c-1.802-1.927-4.348-3.031-6.986-3.031h-.003c-2.638.001-5.184 1.107-6.984 3.033l-53.627 57.354c-2.604 2.785-3.307 6.844-1.789 10.342s4.962 5.758 8.775 5.758h19.895v24.072c0 4.142 3.357 7.5 7.5 7.5s7.5-3.358 7.5-7.5v-27.354c0-6.462-5.257-11.719-11.719-11.719h-10.655l41.106-43.964 41.107 43.964h-10.654c-6.462 0-11.719 5.257-11.719 11.719v81.412h-37.466v-24.072c0-4.142-3.357-7.5-7.5-7.5s-7.5 3.358-7.5 7.5v26.971c0 6.672 5.429 12.101 12.101 12.101h43.267c6.672 0 12.101-5.428 12.101-12.101v-81.03h19.895c3.81 0 7.255-2.26 8.773-5.757z"/></g></g></svg>